<?xml version="1.0" encoding="utf-8"?>
<!-- Generator: Adobe Illustrator 19.1.0, SVG Export Plug-In . SVG Version: 6.00 Build 0)  -->
<svg version="1.1" id="Ebene_1" xmlns="http://www.w3.org/2000/svg" xmlns:xlink="http://www.w3.org/1999/xlink" x="0px" y="0px"
	 viewBox="0 0 1400 500" style="enable-background:new 0 0 1400 500;" xml:space="preserve">
<style type="text/css">
	.st0{fill:#FFFFFF;}
</style>
<g>
	<g>
		<path class="st0" d="M1129.1,404.6c0,15-2.9,16.2-6.8,16.2h-4.5v-33.2h4.8C1126.1,387.6,1129.1,388.9,1129.1,404.6 M1142.8,404.8
			c0-22.3-6.3-27-20.1-27h-17.9v52.8h17.5C1138.3,430.6,1142.8,424.8,1142.8,404.8 M1052.6,430.6v-52.8h-12.5V398l0.1,6.2l-2.3-5.5
			l-9.8-21h-13v52.8h12.5v-24.4l-0.1-4.2l2,4.4l10.3,24.3H1052.6z M948.9,412h-6.6l2.3-12c0.2-1.2,0.8-4.9,0.9-6.5
			c0,1.6,0.8,5.5,1,6.5L948.9,412z M966.3,430.6l-13.8-52.8h-14.3l-13.4,52.8h13l2.1-9.3h11.4l2.1,9.3H966.3z M879.1,430.6
			l-2.7-10.3h-16.2v-42.4h-13.1v52.8H879.1z M782.9,392.7c0,3.2-1.4,4.7-4.7,4.7H772v-9.5h6.3C781.5,387.8,782.9,389.1,782.9,392.7
			 M796.8,430.6l-7.5-24.8c5.4-2.1,7.1-6.6,7.1-13c0-7.7-3.8-14.9-14.9-14.9h-22.5v52.8H772v-23.4h4.6l6.3,23.4H796.8z M709.9,430.6
			l-2.9-10.1h-18.1v-12.7h15.9v-10h-15.9V388H706l2.7-10.1h-32.5v52.8H709.9z M625.8,430.6v-10.3h-19l19.3-33v-9.5H591V388h19.5
			l-20.1,33.7v8.8H625.8z M543,388v-10.2h-36.2V388h11.7v42.6h13V388H543z M457.4,377.8h-13.1v52.8h13.1V377.8z M395.5,377.8h-12.7
			l-4.2,24.4c-0.1,0.9-0.8,4-0.9,6.2c-0.1-2.2-1-5.4-1.1-6.2l-4.9-24.5h-10.8l-4.6,24.1c-0.2,1.1-1,4.2-1.2,6.5
			c0-2.6-0.8-5.8-0.9-6.5l-4.9-24.1h-12.7l11.6,52.8l12.3,0.1l4.7-21.8c0.5-2.4,1.2-5.1,1.2-6.6c0.1,1.5,0.9,4.3,1.2,6.6l4.6,21.7
			h12.4L395.5,377.8z M291.5,414.6c0-8.5-4.2-12.2-14.3-15.9c-1.2-0.5-2.4-1-3.6-1.4c-5.7-1.8-6.9-3.4-6.9-6.6
			c0-2.6,1.3-4.1,4.3-4.1c2.6,0,3.7,1.6,4.2,3.2c0.2,0.5,0.3,4.4,0.4,4.9l13.7-1.8c-0.1-0.5-0.1-1-0.3-1.4
			c-1-7.7-5.4-14.2-17.5-14.2c-12.3,0-18.2,4.7-18.2,14c0,7.6,3.6,11.5,12.9,14.5c1.6,0.5,2.9,1.2,4.5,1.6c6.3,2.8,7,4.5,7,9.1
			c0,3.4-1.7,5-4.8,5c-3.5,0-4.9-2.3-5.3-5.6c-0.2-1.2-0.2-2.6-0.1-4l-14.9,1.9c-0.1,0.9-0.1,1.8,0,2.7c0.8,10.1,6.9,14.5,19.4,14.5
			C286.6,430.9,291.5,425.3,291.5,414.6"/>
		<path class="st0" d="M1299.9,295.8V175H1241v41.9h15.7v50.7c0,20.1-2.7,28.9-12.3,28.9c-12.6,0-13.3-7.1-13.3-92.2
			c0-67-1.4-91.9,11.9-91.9c12.3,0,10.6,25.2,11.9,50.7l43.9-9.2c-1.7-58.9-15.7-83-56.5-83c-47.6,0-56.5,42.2-56.5,133.1
			c0,96.7,14,133.8,59.9,133.8C1276.7,337.7,1294.7,312.5,1299.9,295.8 M1163.8,335V72.9h-42.2v95.6v31.3l-8.5-28.6l-24.8-98.4
			h-40.2V335h42.2V208.4V191l5.4,19.7l28.9,124.2H1163.8z M1022.7,72.9h-45.3V335h45.3V72.9z M954,153.9c-2.7-56.8-13.3-83-55.5-83
			c-36.8,0-57.2,18.4-57.2,133.4c0,95.3,10.9,132.7,56.8,133.4c35.4,0.7,54.5-18.7,56.5-90.2l-44.2-9.9c0,53.1-2.4,58.5-11.9,58.5
			c-13.3,0-11.9-11.6-11.9-91.9c0-85.1,1-91.9,11.9-91.9c9.5,0,10.9,5.4,11.6,50.7L954,153.9z M776.5,252.9h-20.8l6.5-64.3
			c1-8.5,2.4-26.2,3.1-38.8c0.3,12.6,2,31.3,3.1,38.8L776.5,252.9z M829.6,335L787.4,72.9h-46.6L702.6,335h43.9l4.8-44.9h29.6
			L787,335H829.6z M646.9,142.7c0,19.4-7.5,27.2-19.7,27.2h-4.8v-55.8h5.4C639.4,114.1,646.9,120.9,646.9,142.7 M694.9,335
			l-24.2-131.7c19.1-11.2,21.4-33,21.4-60.9c0-27.6-5.1-69.4-63.3-69.4h-50.4V335h43.9V211.4h7.5l17,123.5H694.9z M548,197.1h-63.6
			v41.5H548V197.1z M416.8,142.7c0,19.4-7.5,27.2-19.7,27.2h-4.8v-55.8h5.4C409.4,114.1,416.8,120.9,416.8,142.7 M464.8,335
			l-24.2-131.7c19.1-11.2,21.4-33,21.4-60.9c0-27.6-5.1-69.4-63.3-69.4h-50.4V335h43.9V211.4h7.5l17,123.5H464.8z M323,335V72.9h-50
			l-14.6,83l-10.6,84.4l-12.6-83.7l-17.7-83.7h-47V335h42.2V220.6v-39.1l5.1,38.8l15,114.7h29.3l14.3-113.3l4.8-39.1v39.1V335H323z
			 M145.1,72.9H99.9V335h45.3V72.9z"/>
	</g>
</g>
</svg>
