<?xml version="1.0" encoding="utf-8"?>
<!-- Generator: Adobe Illustrator 19.1.0, SVG Export Plug-In . SVG Version: 6.00 Build 0)  -->
<svg version="1.1" id="Ebene_1" xmlns="http://www.w3.org/2000/svg" xmlns:xlink="http://www.w3.org/1999/xlink" x="0px" y="0px"
	 viewBox="0 0 1400 100" style="enable-background:new 0 0 1400 100;" xml:space="preserve">
<style type="text/css">
	.st0{fill:#E30613;}
	.st1{fill:#1D1D1B;}
	.st2{fill:#FFFFFF;}
	.st3{clip-path:url(#SVGID_2_);fill:#FFFFFF;}
	.st4{clip-path:url(#SVGID_4_);fill:#FFFFFF;}
	.st5{clip-path:url(#SVGID_6_);fill:url(#SVGID_7_);}
</style>
<g>
	<g>
		<path class="st0" d="M237.3,52.3c4.9-2.3,6.8-8.6,10.8-14.4c3.2-4.7,7.6-11,11.4-10.4c6.4,1-5.8,19.6,0.3,24.4
			c3.5,2.7,12.1,1.2,20.6,0.1c8.3-1,20.8-2.3,21.7,1.1c0.7,2.8-10.7,4-17.7,6.3c-7,2.4-15.3,3.4-18,5.8c-2.5,2.2,18.8,21.7,13,24.4
			c-4.5,2.1-11.4-1.8-17.4-5.7c-4.3-2.8-9.6-8.4-16.7-7.5c-6.4,0.8-11.7,4.1-18,10.1c-3.6,3.4-9,9-11.2,6.8
			c-1.3-1.3-1.8-4.5-0.7-7.6c2.2-6.3,15-14.3,11.7-19c-2.7-3.9-9-3.8-14.7-5.6c-5.8-1.8-14.6-4.4-13.7-7.5
			c0.7-2.3,11.3-1.1,18.5-0.5C225.1,53.9,231.2,55.2,237.3,52.3"/>
		<path class="st1" d="M204.5,53.1c-4.8,0-5.1,0.8-5.1,0.9c-0.7,2.3,7.7,4.9,12.2,6.3l1.1,0.3c1.7,0.5,3.4,0.9,5.1,1.2
			c4.1,0.9,7.9,1.7,10,4.7c2.3,3.3-1.5,7.4-5.6,11.7c-2.5,2.7-5.2,5.5-6,7.9c-1,2.9-0.5,5.8,0.6,6.9c1.6,1.5,6.7-3.5,9.5-6.1
			c0.2-0.2,0.5-0.5,0.7-0.7c6.8-6.5,12.1-9.5,18.4-10.3c5.9-0.7,10.6,2.8,14.4,5.6c1,0.7,1.9,1.4,2.8,2c6,3.9,12.6,7.5,16.7,5.6
			c0.3-0.1,0.5-0.3,0.6-0.7c0.5-2.3-4.4-8.6-8.1-13.2c-4.9-6.1-7.1-9.2-5.7-10.5c1.8-1.6,5.7-2.6,10.2-3.7c2.7-0.7,5.4-1.4,8-2.3
			c2.4-0.8,5.2-1.5,7.9-2.1c4-0.9,8.5-2,9.2-3.1c0.1-0.1,0.1-0.2,0-0.3c-0.1-0.5-1.1-1.8-7.4-1.7c-4.3,0-9.5,0.6-13.6,1.1
			c-1,0.1-1.9,0.2-2.8,0.4c-7.7,1-15,2-18.3-0.6c-3.5-2.7-1.8-9.1-0.2-14.8c1-3.7,2.1-7.5,1.2-8.9c-0.2-0.3-0.5-0.5-1-0.6
			c-3.4-0.5-8.2,6.4-10.7,10.1c-1.2,1.7-2.2,3.5-3.1,5.2c-2.2,4-4.3,7.7-7.9,9.4l-0.3-0.6l0.3,0.6c-5.3,2.5-10.7,1.9-16.8,1.3
			c-1.1-0.1-2.3-0.2-3.6-0.3c-0.5,0-1.1-0.1-1.6-0.1c-3.6-0.3-7.6-0.7-10.8-0.7C204.7,53.1,204.6,53.1,204.5,53.1 M217.4,94.6
			c-0.6,0-1.2-0.2-1.7-0.7c-1.6-1.6-2-5.2-0.9-8.3c0.9-2.7,3.7-5.6,6.3-8.4c3.5-3.7,7.1-7.6,5.5-9.9c-1.8-2.5-5.2-3.2-9.2-4.1
			c-1.7-0.4-3.5-0.7-5.2-1.3l-1.1-0.3c-6.7-2.1-14.2-4.5-13.1-8c0.7-2.3,6-2.2,17.7-1.2c0.6,0,1.1,0.1,1.6,0.1
			c1.2,0.1,2.4,0.2,3.6,0.3c6.2,0.6,11.1,1.1,16.1-1.2c3.2-1.5,5.1-4.9,7.3-8.8c1-1.7,2-3.6,3.2-5.3c3.9-5.8,8.1-11.3,12.1-10.7
			c0.9,0.1,1.5,0.5,1.9,1.2c1.2,1.9,0.2,5.7-1,10c-1.5,5.2-3.1,11.1-0.3,13.3c2.9,2.2,9.8,1.3,17.2,0.3c0.9-0.1,1.9-0.2,2.9-0.4
			c15.2-1.9,21.7-1.4,22.5,1.7c0.1,0.5,0,0.9-0.2,1.3c-1,1.6-4.5,2.5-10.1,3.8c-2.7,0.6-5.5,1.3-7.8,2c-2.7,0.9-5.5,1.6-8.2,2.3
			c-4.1,1-8,2-9.5,3.4c-0.2,1,3.4,5.6,5.8,8.6c5.3,6.7,9,11.6,8.3,14.4c-0.2,0.7-0.6,1.3-1.3,1.6c-4.7,2.2-11.4-1.4-18.1-5.7
			c-0.9-0.6-1.9-1.3-2.9-2.1c-3.8-2.8-8-6-13.4-5.3c-5.9,0.7-11,3.6-17.6,9.9c-0.2,0.2-0.5,0.5-0.7,0.7
			C224,90.9,220.1,94.6,217.4,94.6"/>
	</g>
	<path class="st1" d="M102.9,81.5l8.6-22.9l14.8,0l-8.7,22.9L102.9,81.5z M99.9,83.6l19.2,0l10.3-27.1l-19.3,0L99.9,83.6z"/>
	<g>
		<path class="st1" d="M170.6,81.5l14.8,0l8-21.3c-0.2-0.2-0.9-0.6-3-1c-2-0.4-4.2-0.6-6.4-0.6l-51.9,0l-8.6,22.9l14.7,0l7.6-20.2
			l9.6,0l-7.6,20.2l14.7,0l7.6-20.2l8,0L170.6,81.5z M186.9,83.6l-19.3,0l7.6-20.2l-3.5,0l-7.6,20.2l-19.2,0l7.6-20.2l-5.1,0
			l-7.6,20.2l-19.2,0l10.2-27.1l53.4,0c2.3,0,4.6,0.2,6.7,0.6c2.2,0.4,4.7,1.2,4.7,3c0,0.3-0.1,0.5-0.2,0.8L186.9,83.6z"/>
		<path class="st1" d="M213.5,66.4l27.5,0l1.1-3l-27.6,0L213.5,66.4z M242.5,68.5l-32,0l2.7-7.2l32.1,0L242.5,68.5z M237.7,81.5
			l14.8,0l3.5-9.1c-0.1-0.2-1.2-1.2-8.3-1.5l0-2.1c2.3,0,4.6-0.3,6.8-0.7c3.4-0.7,3.7-1.4,3.7-1.4l0,0c0.5-1.1,0.9-2.3,1.4-3.5
			c0.8-2,1-2.7,1-2.9c-0.1-0.1-0.6-0.6-2.9-1c-2-0.4-4.1-0.6-6.4-0.6l-51.9,0l-8.6,22.9l14.7,0l4-10.4l32.2,0L237.7,81.5z M254,83.7
			l-19.3,0l3.9-10.4l-27.7,0l-4,10.4l-19.2,0l10.2-27.1l53.4,0c2.4,0,4.7,0.2,6.8,0.6c2.2,0.4,4.6,1.1,4.6,3c0,0.5-0.1,1.3-1.1,3.8
			c-0.5,1.1-0.9,2.3-1.4,3.4c-0.4,1.1-1.7,1.9-4.3,2.5c1.5,0.6,2.2,1.4,2.2,2.5c0,0.3-0.1,0.5-0.2,0.8L254,83.7z"/>
	</g>
	<polygon class="st2" points="101.4,82.5 118.4,82.6 127.9,57.6 110.8,57.6 	"/>
	<g>
		<defs>
			<path id="SVGID_1_" d="M122.1,82.6l17,0l7.6-20.2l7.3,0l-7.6,20.2l17,0l7.6-20.2l5.7,0l-7.6,20.2l17.1,0l8.3-22.1
				c0.1-0.1,0.1-0.2,0.1-0.3c0-0.8-1.3-1.5-3.9-2c-2.1-0.4-4.3-0.6-6.6-0.6l-52.6,0L122.1,82.6z"/>
		</defs>
		<clipPath id="SVGID_2_">
			<use xlink:href="#SVGID_1_"  style="overflow:visible;"/>
		</clipPath>
		<rect x="96.5" y="53.4" class="st3" width="474" height="60.5"/>
	</g>
	<g>
		<defs>
			<path id="SVGID_3_" d="M212,67.5l1.9-5.1l29.8,0l-1.9,5.1L212,67.5z M189.2,82.6l17,0l4-10.4l29.9,0l-3.9,10.4l17.1,0l3.7-9.8
				c0.1-0.1,0.1-0.2,0.1-0.4c0-1.5-3.1-2.3-9.3-2.5c2.4,0,4.7-0.3,7-0.7c2.7-0.6,4.2-1.3,4.5-2.1c0.5-1.1,0.9-2.3,1.4-3.5
				c0.7-1.7,1.1-2.8,1.1-3.4c0-0.9-1.3-1.5-3.8-2c-2-0.4-4.2-0.6-6.6-0.6l-52.7,0L189.2,82.6z"/>
		</defs>
		<clipPath id="SVGID_4_">
			<use xlink:href="#SVGID_3_"  style="overflow:visible;"/>
		</clipPath>
		<rect x="96.5" y="53.4" class="st4" width="474" height="60.5"/>
	</g>
	<g>
		<path class="st1" d="M193.4,75.6c0,0,0.1,0,0.1,0c1.4,0,2.6,0.2,3.6,0.5c1.3,0.4,2,1,2,1.9c0,0.1,0,0.1,0,0.2
			c0.1-0.4,0.1-0.7,0.1-1.1c0-0.5-0.2-0.9-0.5-1.4c-0.3-0.4-0.9-0.8-1.5-1c0,0,0,0,0,0c-0.3-0.1-0.7-0.2-1.2-0.3
			c-0.5-0.1-1.1-0.2-1.8-0.3c-0.6-0.1-1.3-0.1-2-0.1c-1.1,0-2.3,0.1-3.5,0.2c-1.2,0.2-2.2,0.4-3.2,0.7c-0.9,0.3-1.6,0.5-2,0.8
			c-0.3,0.2-0.6,0.5-0.9,0.8c-0.3,0.4-0.5,0.7-0.7,1.1c-0.1,0.2-0.1,0.4-0.2,0.5c0.2,0,0.4,0,0.6,0c0.3,0,0.6,0,0.9,0
			c0-0.2,0.1-0.7,0.8-0.9c0.2-0.1,0.5-0.2,1-0.2c0.4-0.1,0.9-0.2,1.5-0.3l0.1,0c0.6-0.1,1.6-0.3,3.1-0.5c0.2,0,0.3,0,0.4,0.1
			c0.1-0.1,0.3-0.2,0.5-0.2c0.1,0,0.4,0,0.8-0.1c0.4,0,0.8-0.1,1.1-0.1C192.9,75.6,193.2,75.6,193.4,75.6 M191.5,77.3
			c0,0.3-0.1,0.6-0.3,0.9c-0.2,0.4-0.4,0.8-0.7,1.1c-0.2,0.3-0.6,0.8-1.2,1.5c0,0-0.1,0.1-0.1,0.1c1.1-0.2,2-0.4,2.8-0.6
			c1.3-0.3,2.4-0.6,3.3-1c0.8-0.3,1.4-0.6,1.8-0.9c0.2-0.1,0.4-0.3,0.4-0.5c-0.1-0.1-0.3-0.2-0.8-0.4c-0.9-0.3-1.9-0.4-3.2-0.4
			c-0.3,0-0.5,0-0.8,0C192.4,77.2,192,77.3,191.5,77.3C191.6,77.3,191.5,77.3,191.5,77.3 M198.8,79.1c-0.2,0.2-0.4,0.4-0.6,0.7
			c-0.5,0.4-1.2,0.8-2.2,1.2c-0.9,0.3-2.1,0.7-3.5,1c-1.3,0.3-2.9,0.7-4.7,1c1-0.1,1.9-0.2,2.8-0.3c1.5-0.2,2.8-0.4,3.8-0.7
			c1-0.3,1.8-0.5,2.3-0.8c0.6-0.3,1-0.6,1.4-1.1C198.3,79.8,198.6,79.4,198.8,79.1 M186.5,82.4c-0.2,0.2-0.3,0.4-0.5,0.6
			c0,0,0,0-0.1,0.1c0.4,0,0.8,0,1.1-0.1c-0.2,0-0.4-0.2-0.5-0.4C186.6,82.5,186.5,82.5,186.5,82.4 M181.3,89.4
			c0,0.1-0.1,0.1-0.1,0.2c-0.2,0.3-0.3,0.6-0.4,0.8c0.2-0.2,0.3-0.3,0.4-0.6C181.2,89.7,181.3,89.6,181.3,89.4 M189.8,88.3
			c1.1,0.6,1.9,1,2.4,1.2c0.5,0.3,1.1,0.6,1.7,0.9c0.6,0.3,1.1,0.6,1.4,0.8c0,0,0.1,0,0.1,0c0-0.2,0.1-0.5,0.1-0.9
			c0-0.7,0-0.9-0.1-1c0-0.1-0.1-0.1-0.1-0.2c-0.1-0.1-0.4-0.3-1.2-0.7c-0.5-0.2-1.1-0.6-1.9-0.9c-0.8-0.4-1.9-0.8-3.1-1.3
			c-1.2-0.5-2.5-1-3.9-1.5c-0.4-0.1-0.6-0.5-0.5-0.9c0-0.1,0.1-0.3,0.2-0.4c-0.5,0.1-0.8,0.1-0.9,0.1c-0.1,0-0.2,0-0.3,0.1
			c0,0,0,0,0,0c-0.1,0-0.1,0.1-0.2,0.1c0,0,0,0,0,0c0,0-0.2,0.2-0.5,0.6c-0.1,0.2-0.2,0.3-0.3,0.4c0.1,0.1,0.3,0.1,0.6,0.2
			c0.2,0.1,0.4,0.3,0.5,0.5c0,0.1,0,0.2,0,0.3c0.2-0.2,0.6-0.3,0.9-0.1L189.8,88.3z M195.6,93L195.6,93c-0.2,0-0.5-0.1-1-0.4
			c-0.4-0.2-0.9-0.5-1.5-0.8c-0.6-0.3-1.2-0.6-1.7-0.9c-0.5-0.3-1.3-0.7-2.4-1.2c0,0,0,0,0,0l-4.6-2.3c-1.4,1.9-1.7,2.6-1.7,2.8
			c-0.2,0.6-0.5,1.1-1.1,1.5c-0.5,0.4-0.9,0.6-1.3,0.6h0c-0.4,0-0.8-0.1-1-0.3c-0.3-0.2-0.5-0.6-0.5-1c0-0.3,0.1-0.6,0.9-2.1
			c0.5-0.8,1.1-1.7,1.8-2.7c-0.1,0-0.1-0.1-0.2-0.1c-0.4-0.2-0.6-0.7-0.5-1.2c0-0.3,0.2-0.8,0.6-1.3c0.3-0.4,0.5-0.7,0.7-0.9
			c0.2-0.2,0.4-0.4,0.7-0.5c0.2-0.1,0.5-0.2,0.8-0.2c0.2,0,0.6-0.1,1.3-0.2c0.7-0.9,1.4-1.9,2.2-2.9c0.3-0.4,0.6-0.8,0.8-1.1
			c-0.4,0.1-0.8,0.1-1,0.2l-0.1,0c0.1,0.1,0.1,0.3,0.1,0.4c0,0.1-0.1,0.9-1.1,1c0,0,0,0,0,0c-0.2,0-0.9,0-1.9,0.1
			c-0.6,0-1.1,0-1.5,0c-0.4,0-0.7,0-0.9,0c-0.6,0-0.9-0.3-1.1-0.5c-0.2-0.2-0.4-0.5-0.4-1.1c0-0.3,0.1-0.6,0.3-1.2
			c0.2-0.5,0.5-1,0.9-1.4c0.4-0.5,0.8-0.9,1.4-1.2c0.5-0.3,1.3-0.6,2.4-0.9c1-0.3,2.2-0.5,3.4-0.7c1.2-0.2,2.5-0.3,3.7-0.3
			c0.7,0,1.5,0.1,2.2,0.1c0.7,0.1,1.4,0.2,1.9,0.3c0.6,0.1,1.1,0.3,1.4,0.4c1,0.3,1.7,0.8,2.3,1.5c0.6,0.7,0.8,1.5,0.8,2.3
			c0,0.7-0.1,1.5-0.4,2.2c-0.3,0.7-0.7,1.4-1.2,2c-0.5,0.6-1.2,1.1-1.9,1.5c-0.6,0.3-1.4,0.6-2.6,0.9c-1.1,0.3-2.5,0.5-4,0.7
			c-0.5,0.1-1.1,0.1-1.6,0.2c0.2,0.1,0.4,0.2,0.6,0.3c1.2,0.5,2.3,1,3.1,1.4c0.8,0.4,1.5,0.7,2,1c1,0.5,1.3,0.7,1.4,0.8
			c0.3,0.3,0.6,0.6,0.7,1c0.1,0.3,0.1,0.8,0.1,1.4c0,0.7-0.1,1.3-0.2,1.6C196.7,92.8,196.1,93,195.6,93"/>
		<path class="st1" d="M190.7,76.6c0,0.1,0,0.1,0,0.2c0,0.1,0,0.1,0,0.2c0,0.3-0.1,0.6-0.3,0.9c-0.2,0.3-0.4,0.7-0.6,1
			c-0.3,0.3-0.6,0.9-1.1,1.5c-0.5,0.6-1,1.2-1.4,1.8c1.9-0.4,3.6-0.7,4.9-1c1.4-0.3,2.5-0.7,3.4-1c0.9-0.3,1.5-0.7,2-1.1
			c0.5-0.4,0.7-0.8,0.7-1.2c0-0.5-0.5-0.8-1.4-1.1c-0.9-0.3-2.1-0.4-3.4-0.4c-0.3,0-0.6,0-0.9,0c-0.3,0-0.7,0-1.1,0.1
			C191.1,76.5,190.8,76.6,190.7,76.6 M189.4,89l-5.2-2.6c-1.3,1.8-2.1,3-2.2,3.6c-0.1,0.4-0.4,0.8-0.8,1c-0.4,0.3-0.7,0.4-0.8,0.4
			c-0.5,0-0.7-0.2-0.7-0.5c0-0.2,0.3-0.8,0.8-1.7c0.6-1,1.3-2.1,2.3-3.4c-0.5-0.2-0.9-0.4-1-0.4c-0.1-0.1-0.2-0.2-0.1-0.4
			c0-0.2,0.2-0.5,0.5-1c0.3-0.4,0.5-0.6,0.6-0.8c0.1-0.1,0.3-0.2,0.5-0.3c0.2-0.1,0.4-0.1,0.6-0.2c0.2,0,0.7-0.1,1.6-0.2
			c0.7-1,1.5-2,2.4-3.2c0.9-1.1,1.5-2,2-2.6c-1.4,0.2-2.5,0.3-3,0.5c-0.6,0.1-1.1,0.2-1.5,0.3c-0.4,0.1-0.7,0.1-0.9,0.2
			c-0.2,0.1-0.2,0.1-0.2,0.2c0,0.1,0.1,0.2,0.3,0.2c0.2,0,0.5,0.1,0.8,0.1c0.3,0,0.6,0,0.7,0c0.2,0,0.3,0.1,0.3,0.2
			c0,0.1-0.1,0.1-0.3,0.2c-0.2,0-0.9,0-1.9,0.1c-0.6,0-1.1,0-1.5,0c-0.4,0-0.7,0-0.8,0c-0.2,0-0.4-0.1-0.5-0.2
			c-0.1-0.1-0.2-0.3-0.2-0.5c0-0.2,0.1-0.4,0.3-0.9c0.2-0.4,0.4-0.8,0.8-1.3c0.3-0.4,0.7-0.8,1.1-1c0.5-0.3,1.2-0.6,2.2-0.8
			c1-0.3,2.1-0.5,3.3-0.7c1.2-0.2,2.4-0.3,3.6-0.3c0.7,0,1.4,0.1,2.1,0.1c0.7,0.1,1.3,0.2,1.9,0.3c0.6,0.1,1,0.2,1.3,0.4
			c0.8,0.3,1.5,0.7,1.9,1.3c0.4,0.6,0.7,1.2,0.7,1.9c0,0.7-0.1,1.3-0.4,1.9c-0.2,0.6-0.6,1.2-1,1.7c-0.5,0.5-1,0.9-1.7,1.3
			c-0.5,0.3-1.3,0.5-2.4,0.8c-1.1,0.3-2.4,0.5-3.9,0.7c-1.5,0.2-3.3,0.4-5.1,0.4c1.4,0.5,2.7,1,3.9,1.5c1.2,0.5,2.3,1,3.1,1.4
			c0.8,0.4,1.5,0.7,2,1c0.7,0.4,1.1,0.6,1.3,0.8c0.2,0.2,0.3,0.4,0.4,0.6c0.1,0.2,0.1,0.7,0.1,1.2c0,0.6,0,1.1-0.1,1.4
			c-0.1,0.3-0.2,0.5-0.5,0.5c-0.1,0-0.3-0.1-0.7-0.3c-0.3-0.2-0.8-0.4-1.5-0.8c-0.6-0.3-1.2-0.7-1.7-0.9
			C191.3,90,190.5,89.6,189.4,89"/>
		<path class="st1" d="M204.1,85.5c0.1,0,0.1,0,0.2,0.1c0.1,0.1,0.2,0.1,0.2,0.2c0.1-0.1,0.1-0.2,0.2-0.4c0.2-0.3,0.5-0.8,1-1.4
			c0.4-0.5,0.5-0.7,0.5-0.8c0,0,0,0,0,0c0-0.1-0.1-0.2-0.1-0.2C205.4,83.9,204.7,84.8,204.1,85.5 M203.1,84.2
			c-0.8,0.5-1.5,0.9-2,1.2c-0.8,0.6-1.2,1.2-1.2,1.7c0,0,0,0,0,0.1c0.9-0.5,1.6-1.2,2.4-2C202.5,84.9,202.8,84.6,203.1,84.2
			 M199.6,84.1c-0.5,0.5-0.9,0.8-1.1,1.1c-0.2,0.2-0.3,0.4-0.3,0.6c-0.1,0.2-0.1,0.5-0.1,0.9c0,0.5,0.1,1,0.3,1.4
			c0.2,0.5,0.4,0.8,0.7,1.1c0.1,0.1,0.2,0.2,0.2,0.2c0.1,0,0.4-0.2,1-0.7c0,0,0,0,0,0c-0.3,0.1-0.5,0.2-0.7,0.2h0
			c-0.5,0-0.9-0.3-1.1-0.7c-0.2-0.3-0.2-0.7-0.2-1.1c0-1.1,0.6-2.1,1.9-3c1.1-0.8,2.8-1.7,5.3-2.8c0.1-0.1,0.3-0.1,0.4-0.1
			c0.1-0.1,0.2-0.2,0.4-0.3c0.1,0,0.2-0.1,0.2-0.1c-0.1-0.1-0.1-0.2-0.2-0.3c0,0,0,0,0,0c-0.4,0-1.2,0.2-2.7,0.8
			C202.3,82,201,82.9,199.6,84.1 M203.9,90c0,0,0.1,0,0.1,0c0.2,0,0.8-0.1,2.1-1.3c-0.1,0-0.1,0-0.2,0c-0.9,0-1.6-0.5-1.7-1.4
			c-0.4,1.1-0.5,1.8-0.5,2.1C203.8,89.8,203.9,89.9,203.9,90 M204,91.6L204,91.6c-0.6,0-1.2-0.3-1.5-0.7c-0.2-0.4-0.3-0.9-0.3-1.5
			c0-0.1,0-0.2,0-0.3c-0.3,0.3-0.6,0.6-0.9,0.9c-0.8,0.8-1.5,1.2-2.2,1.2h0c-0.6,0-1.1-0.5-1.4-0.8c-0.4-0.4-0.7-0.9-0.9-1.6
			c-0.3-0.7-0.4-1.4-0.4-2.1c0-0.5,0.1-0.9,0.2-1.3c0.1-0.4,0.3-0.8,0.6-1.2c0.3-0.3,0.7-0.8,1.2-1.3c0,0,0,0,0,0
			c1.5-1.3,2.9-2.3,4.3-2.9c1.4-0.7,2.5-1,3.4-1h0c0.3,0,0.7,0.1,1.1,0.5c0.2,0.2,0.4,0.5,0.5,0.8c0.1,0.3,0.2,0.6,0.2,0.8
			c0,0.4-0.2,0.8-0.6,1c0,0,0,0,0,0c0,0,0,0,0,0c0.1,0.2,0.1,0.3,0.2,0.4c0.1,0.2,0.1,0.4,0.1,0.7c0,0.4-0.2,0.9-0.8,1.7
			c-0.4,0.6-0.7,1-0.9,1.3c-0.1,0.1-0.1,0.4-0.1,0.6c0,0.1,0,0.2,0,0.2c0,0,0.1,0,0.1,0h0c0.1,0,0.8-0.1,2.5-1.6
			c0.2-0.2,0.6-0.3,0.9-0.1c0.3,0.1,0.5,0.4,0.5,0.7l0,0.8c0,0.2-0.1,0.4-0.2,0.5C206.3,91.1,204.9,91.6,204,91.6"/>
		<path class="st1" d="M205.7,82.1c-2.4,1.1-4.1,2-5.1,2.8c-1,0.8-1.5,1.5-1.5,2.3c0,0.3,0,0.5,0.1,0.7c0.1,0.2,0.2,0.3,0.4,0.3
			c0.1,0,0.3-0.1,0.5-0.2c1-0.6,1.9-1.3,2.7-2.2C203.6,84.9,204.6,83.6,205.7,82.1 M199.1,83.5c1.4-1.3,2.8-2.2,4.1-2.8
			c1.3-0.6,2.3-0.9,3.1-0.9c0.2,0,0.4,0.1,0.5,0.3c0.2,0.2,0.3,0.3,0.4,0.6c0.1,0.2,0.1,0.4,0.1,0.5c0,0.2-0.1,0.3-0.2,0.4
			c-0.1,0.1-0.4,0.2-0.7,0.3c0.1,0.1,0.1,0.3,0.2,0.6c0.1,0.2,0.2,0.4,0.2,0.6c0.1,0.1,0.1,0.3,0.1,0.4c0,0.2-0.2,0.6-0.7,1.2
			c-0.4,0.6-0.8,1-0.9,1.3c-0.2,0.3-0.3,0.6-0.3,1c0,0.7,0.3,1,0.9,1c0.6,0,1.7-0.6,3-1.8l0,0.8c-2.3,2.6-4,3.8-5,3.8
			c-0.4,0-0.6-0.1-0.8-0.4c-0.1-0.2-0.2-0.6-0.2-1c0-0.7,0.3-1.8,0.8-3.2c-1.4,1.5-2.4,2.5-3,3.2c-0.7,0.6-1.2,0.9-1.6,0.9
			c-0.2,0-0.5-0.2-0.8-0.5c-0.3-0.4-0.6-0.8-0.8-1.4c-0.2-0.6-0.3-1.1-0.3-1.7c0-0.4,0-0.8,0.1-1.1c0.1-0.3,0.2-0.6,0.5-0.9
			C198.2,84.4,198.6,84,199.1,83.5"/>
		<path class="st1" d="M215.3,81.1c-0.1,0-0.6,0.1-1.5,0.6c-0.8,0.5-1.6,1.1-2.5,2c-0.9,0.9-1.3,1.4-1.5,1.7
			c-0.2,0.4-0.3,0.8-0.3,1.3c0,0.6,0.1,1.2,0.3,1.8c0.2,0.5,0.5,1,0.8,1.3c0.3,0.3,0.5,0.4,0.8,0.4c0,0,0,0,0,0
			c0.4,0,0.8-0.1,1.2-0.3c0.3-0.1,0.5-0.3,0.8-0.5c-0.4,0.1-0.8,0.2-1.2,0.2c-0.8,0-1.4-0.3-1.9-0.8c-0.5-0.5-0.8-1.1-0.8-1.9
			c0-0.5,0.2-0.9,0.5-1.3c0.3-0.3,0.6-0.7,1-0.9c0.3-0.3,1-0.7,1.9-1.4c0.3-0.3,0.7-0.3,0.9-0.2c0.3,0.1,0.6,0.3,0.7,0.5
			c0.3-0.3,0.6-0.7,0.8-1.2c0.3-0.6,0.4-0.8,0.4-0.9c0-0.2-0.1-0.2-0.1-0.3C215.5,81.2,215.4,81.1,215.3,81.1L215.3,81.1z
			 M211.5,91.8L211.5,91.8c-0.7,0-1.4-0.3-2-0.8c-0.5-0.5-0.9-1.1-1.2-1.9c-0.3-0.7-0.4-1.5-0.4-2.4c0-0.8,0.2-1.5,0.5-2.1
			c0.3-0.6,0.9-1.2,1.8-2.1c1-0.9,1.9-1.7,2.8-2.2c1-0.6,1.7-0.9,2.3-0.9h0c0.5,0,1,0.2,1.4,0.6c0.4,0.4,0.6,0.9,0.6,1.4
			c0,0.4-0.2,1-0.6,1.6c-0.3,0.6-0.7,1.1-1.1,1.6c-0.6,0.6-1,0.9-1.5,0.8c-0.4,0-0.8-0.2-1-0.5c-0.5,0.4-0.9,0.7-1.2,0.8
			c-0.3,0.2-0.5,0.4-0.7,0.6c-0.1,0.2-0.1,0.3-0.1,0.4c0,0.4,0.2,0.6,0.3,0.8c0.1,0.1,0.3,0.3,0.8,0.3c0,0,0,0,0,0
			c0.4,0,1-0.2,1.7-0.6c0.8-0.4,1.7-1.1,2.8-1.9c0.2-0.2,0.6-0.2,0.8-0.1c0.3,0.1,0.4,0.4,0.4,0.7l0,0.9c0,0.2-0.1,0.4-0.2,0.6
			c-1,1-1.8,1.7-2.5,2.3c-0.7,0.6-1.3,1-1.9,1.3C212.8,91.6,212.1,91.8,211.5,91.8"/>
		<path class="st1" d="M217.2,86.2l0,0.9c-1,1-1.8,1.7-2.4,2.2c-0.6,0.5-1.2,0.9-1.7,1.2c-0.5,0.3-1.1,0.4-1.6,0.4
			c-0.5,0-1-0.2-1.4-0.6c-0.4-0.4-0.7-0.9-1-1.6c-0.2-0.7-0.3-1.3-0.3-2.1c0-0.6,0.1-1.2,0.4-1.7c0.3-0.5,0.8-1.1,1.6-1.9
			c0.9-0.9,1.8-1.6,2.6-2.1c0.8-0.5,1.4-0.7,1.9-0.7c0.3,0,0.6,0.1,0.8,0.3c0.2,0.2,0.3,0.5,0.3,0.9c0,0.3-0.2,0.7-0.5,1.3
			c-0.3,0.5-0.7,1-1,1.4c-0.4,0.4-0.7,0.6-0.9,0.6c-0.2,0-0.4-0.1-0.4-0.4c0-0.1,0-0.1,0-0.2c0-0.1,0-0.1,0-0.2c0-0.1,0-0.2-0.1-0.2
			c-0.1,0-0.2,0-0.3,0.1c-0.9,0.6-1.6,1.1-1.9,1.4c-0.3,0.3-0.6,0.5-0.8,0.8c-0.2,0.3-0.3,0.5-0.3,0.8c0,0.5,0.2,1,0.5,1.3
			c0.3,0.3,0.8,0.5,1.4,0.5c0.6,0,1.3-0.2,2.1-0.6C215.2,87.6,216.1,87,217.2,86.2"/>
		<path class="st1" d="M222.9,79.2L222.9,79.2c0.2,0,0.4-0.2,0.6-0.4c0.3-0.3,0.4-0.6,0.4-0.8c0-0.1,0-0.1,0-0.1c0,0-0.1,0-0.1,0h0
			c-0.1,0-0.4,0.2-0.6,0.4c-0.3,0.3-0.4,0.6-0.4,0.9c0,0,0,0,0,0s0,0,0,0C222.8,79.2,222.8,79.2,222.9,79.2 M221.6,81.8
			c-0.4,0-1.4,0.3-2.9,2.7c-0.3,0.5-0.5,0.8-0.5,0.9c-0.1,0.2-0.1,0.4-0.2,0.6c-0.1,0.3-0.1,0.5-0.1,0.8c0,0.8,0.1,1.6,0.5,2.3
			c0.3,0.6,0.6,0.7,1,0.7c0.2,0,0.7-0.1,1.5-0.7c0.1-0.1,0.2-0.2,0.4-0.3c-0.3,0.1-0.6,0.1-0.8,0.1c-0.6,0-1.1-0.2-1.5-0.5
			c-0.4-0.4-0.6-0.9-0.6-1.4c0-0.6,0.2-1.1,0.5-1.5c0.3-0.3,0.8-0.9,1.7-1.7c0.2-0.2,0.4-0.5,0.8-1.2
			C221.5,82.2,221.6,81.9,221.6,81.8C221.6,81.8,221.6,81.8,221.6,81.8 M219.3,91.4L219.3,91.4c-0.8,0-1.8-0.3-2.4-1.7
			c-0.4-0.9-0.6-1.9-0.6-2.9c0-0.4,0-0.8,0.1-1.2c0.1-0.4,0.2-0.7,0.3-1c0.1-0.2,0.3-0.6,0.6-1.1c1.5-2.2,2.8-3.4,4.2-3.4
			c-0.3-0.3-0.4-0.7-0.4-1.1c0-0.6,0.3-1.2,0.8-1.8c0.5-0.7,1.2-1,1.8-1h0c0.5,0,0.9,0.2,1.2,0.5c0.2,0.2,0.5,0.6,0.5,1.3
			c0,0.6-0.3,1.2-0.8,1.8c-0.5,0.6-1.1,1-1.7,1c0.2,0.3,0.3,0.6,0.3,0.8c0,0.5-0.2,1-0.7,1.8c-0.4,0.7-0.8,1.2-1.1,1.5
			c-1,0.9-1.4,1.3-1.5,1.5c-0.1,0.2-0.2,0.3-0.2,0.5c0,0.1,0,0.2,0.1,0.2c0.1,0.1,0.2,0.1,0.4,0.1c0,0,0,0,0,0c0.3,0,0.6-0.1,1-0.3
			c0.5-0.3,1.1-0.8,1.9-1.4c0.2-0.2,0.6-0.2,0.9-0.1c0.3,0.1,0.5,0.4,0.5,0.7l0,1c0,0.2-0.1,0.3-0.2,0.5c-0.9,1.2-1.8,2.1-2.7,2.7
			C220.8,91.1,220,91.4,219.3,91.4"/>
		<path class="st1" d="M223.8,86.2l0,1c-0.9,1.1-1.7,2-2.5,2.6c-0.8,0.6-1.4,0.9-2,0.9c-0.8,0-1.3-0.4-1.7-1.2
			c-0.4-0.8-0.5-1.7-0.5-2.6c0-0.4,0-0.7,0.1-1c0.1-0.3,0.2-0.6,0.3-0.8c0.1-0.2,0.3-0.5,0.6-1c1.3-2,2.5-3,3.6-3
			c0.6,0,0.8,0.2,0.8,0.7c0,0.3-0.2,0.8-0.6,1.4c-0.4,0.6-0.7,1.1-1,1.3c-0.8,0.8-1.3,1.3-1.6,1.6c-0.2,0.3-0.4,0.6-0.4,1
			c0,0.3,0.1,0.6,0.4,0.8c0.2,0.2,0.6,0.3,1,0.3c0.4,0,0.9-0.2,1.4-0.5C222.3,87.4,222.9,86.9,223.8,86.2 M222.9,80
			c-0.2,0-0.4-0.1-0.7-0.3c-0.2-0.2-0.3-0.4-0.3-0.7c0-0.4,0.2-0.9,0.6-1.3c0.4-0.5,0.8-0.7,1.2-0.7c0.3,0,0.5,0.1,0.7,0.3
			c0.2,0.2,0.3,0.4,0.3,0.7c0,0.4-0.2,0.8-0.6,1.3C223.7,79.8,223.3,80,222.9,80"/>
		<path class="st1" d="M230.6,83.4c0.2,0,0.4,0.1,0.6,0.3c0.2,0.2,0.2,0.4,0.2,0.6c0.3-0.3,0.6-0.7,1-1.1c0,0,0,0,0,0
			c0.2-0.2,0.3-0.4,0.4-0.5c0-0.3-0.1-0.6-0.2-0.9c-0.1,0.1-0.3,0.1-0.4,0.3c-0.7,0.4-1.3,0.9-1.8,1.3
			C230.4,83.5,230.5,83.4,230.6,83.4 M227.3,82.6c-0.2,0-0.5,0.2-0.7,0.5c-0.4,0.4-0.9,1.1-1.6,2c-0.4,0.6-0.6,0.9-0.6,1.1
			c0,0.1-0.1,0.3-0.1,0.9c0,0.7,0.1,1.3,0.3,1.9c0.1,0.1,0.1,0.2,0.1,0.3c0.1-0.1,0.4-0.4,0.8-0.9c0.1-0.2,0.2-0.3,0.4-0.5
			c-0.1,0-0.1,0-0.2,0c-0.5,0-1.1-0.4-1.1-1.2c0-0.5,0.3-1.3,2.4-3.7C227.2,82.8,227.3,82.7,227.3,82.6 M229.7,87.3
			c-0.1,0.2-0.2,0.4-0.3,0.6c-0.1,0.3-0.2,0.5-0.3,0.8c-0.1,0.2-0.1,0.4-0.1,0.6c0,0.7,0.2,0.7,0.3,0.7h0c0.1,0,0.4,0,1.2-0.7
			c0.1-0.1,0.3-0.2,0.5-0.4h0c-0.4,0-0.7-0.2-1-0.4c-0.2-0.2-0.3-0.6-0.3-1C229.7,87.4,229.7,87.4,229.7,87.3 M229.3,91.6
			L229.3,91.6c-0.5,0-1.9-0.2-1.9-2.3c0-0.4,0.1-0.7,0.2-1c-0.2,0.3-0.5,0.6-0.8,1c-0.4,0.6-0.8,1-1,1.2c-0.4,0.4-0.8,0.5-1.1,0.5h0
			c-1,0-1.4-1.1-1.5-1.4c-0.3-0.7-0.4-1.5-0.4-2.5c0-0.6,0.1-1.1,0.2-1.5c0.1-0.3,0.4-0.8,0.8-1.4c0.7-1,1.3-1.8,1.8-2.3
			c0.6-0.6,1.2-0.9,1.9-0.9h0c0.4,0,0.8,0.1,1.1,0.3c0.4,0.2,0.7,0.7,0.7,1.1c0.6-0.5,1.4-1.1,2.1-1.6c0.6-0.4,1.2-0.6,1.7-0.6h0
			c0.8,0,1.1,0.9,1.2,1.2c0.2,0.5,0.3,1,0.3,1.5c0,0.4-0.2,0.9-0.8,1.5c-1.4,1.5-1.9,2.4-2.1,2.8c0.1,0,0.1-0.1,0.2-0.1
			c0.4-0.3,1.1-0.8,2-1.4c0.2-0.2,0.6-0.2,0.8-0.1c0.3,0.1,0.4,0.4,0.4,0.7l0,1c0,0.2-0.1,0.4-0.2,0.6c-1.3,1.3-2.4,2.2-3.1,2.8
			C230.7,91.2,229.9,91.6,229.3,91.6"/>
		<path class="st1" d="M233,83.7c-1.6,1.8-2.4,3-2.5,3.7c0,0.4,0.2,0.6,0.5,0.6c0.3,0,0.6-0.1,1-0.4c0.4-0.3,1.1-0.8,2-1.5l0,1
			c-1.3,1.3-2.3,2.2-3,2.8s-1.3,0.8-1.7,0.8c-0.8,0-1.1-0.5-1.1-1.5c0-0.3,0.1-0.6,0.1-0.9c0.1-0.3,0.2-0.6,0.4-0.9
			c0.2-0.3,0.4-0.8,0.8-1.3c0.3-0.6,0.7-1.2,1.2-2c-0.5,0.3-1.2,0.8-2,1.6c-0.5,0.5-1,1-1.3,1.4c-0.4,0.4-0.8,0.9-1.2,1.5
			c-0.4,0.5-0.7,0.9-0.9,1.1c-0.2,0.2-0.4,0.3-0.6,0.3c-0.3,0-0.6-0.3-0.8-0.9c-0.2-0.6-0.4-1.3-0.4-2.2c0-0.5,0.1-0.9,0.2-1.2
			c0.1-0.3,0.4-0.7,0.7-1.2c0.6-1,1.2-1.7,1.7-2.1c0.5-0.5,0.9-0.7,1.3-0.7c0.3,0,0.5,0.1,0.7,0.2c0.2,0.1,0.3,0.3,0.3,0.5
			c0,0.1,0,0.2-0.1,0.3c-0.1,0.1-0.1,0.2-0.2,0.3c-0.1,0.1-0.2,0.2-0.4,0.5c-1.5,1.6-2.2,2.6-2.2,3.1c0,0.3,0.1,0.4,0.3,0.4
			c0.1,0,0.3-0.2,0.6-0.5c0.3-0.4,0.7-0.8,1.2-1.4c0.5-0.6,1.1-1.2,1.8-1.8c0.7-0.6,1.5-1.2,2.4-1.8c0.5-0.3,0.9-0.5,1.2-0.5
			c0.1,0,0.3,0.2,0.4,0.6c0.1,0.4,0.2,0.8,0.2,1.2C233.6,83,233.4,83.3,233,83.7"/>
		<path class="st1" d="M241.2,85.4c0.2,0,0.3,0,0.4,0.1c0.2,0.1,0.3,0.3,0.3,0.5c0.3-0.6,0.5-1.1,0.7-1.5c0.3-0.7,0.4-1.1,0.4-1.3
			c-0.1,0.1-0.2,0.1-0.3,0.3c-0.4,0.4-0.9,0.9-1.5,1.7C241.2,85.2,241.2,85.3,241.2,85.4C241.1,85.4,241.2,85.4,241.2,85.4
			 M240.6,83.4c-0.7,0.3-1.3,0.7-2,1.1c-0.7,0.5-1.3,1-1.7,1.6c-0.4,0.5-0.5,0.9-0.6,1.2c0.1,0,0.3-0.1,0.5-0.3
			c0.4-0.3,1-0.8,1.8-1.5c0.3-0.3,0.8-0.8,1.4-1.5C240.3,83.9,240.5,83.7,240.6,83.4 M241.6,81c-0.4,0-1.3,0.2-2.9,1.2
			c-0.7,0.4-1.4,0.9-1.9,1.3c-0.5,0.4-1,0.9-1.3,1.3c-0.3,0.4-0.5,0.8-0.7,1.1c-0.1,0.3-0.2,0.6-0.2,0.8c0,0.7,0.2,1.3,0.5,1.9
			c0.3,0.6,0.5,0.7,0.6,0.7c0.3,0,0.6-0.1,1-0.4c0.1-0.1,0.2-0.1,0.3-0.2c-0.3,0.1-0.5,0.2-0.8,0.2c-0.4,0-0.8-0.2-1.1-0.5
			c-0.2-0.3-0.4-0.7-0.4-1.1c0-0.7,0.3-1.4,0.9-2.2c0.5-0.7,1.2-1.3,2-1.9c0.8-0.6,1.7-1.1,2.5-1.4C241.1,81.5,241.5,81.2,241.6,81
			C241.6,81,241.6,81,241.6,81 M240.8,89c-0.1,0.3-0.3,0.6-0.5,0.9l0.7-0.6C240.9,89.3,240.9,89.1,240.8,89 M239,91.7
			c-0.1,0.1-0.2,0.2-0.3,0.2c-0.5,0.4-0.9,0.7-1.2,1c-0.3,0.2-0.6,0.6-0.9,0.9c-0.3,0.3-0.6,0.7-0.8,1.1c-0.5,0.7-0.7,1.2-0.8,1.6
			c0.3-0.2,0.7-0.5,1.3-1.2C237,94.5,238,93.3,239,91.7 M234.4,98.4L234.4,98.4c-0.4,0-0.7-0.2-0.9-0.3c-0.2-0.2-0.4-0.6-0.4-1
			c0-0.8,0.4-1.8,1.2-3c0.3-0.4,0.6-0.9,1-1.3c0.4-0.4,0.7-0.8,1-1.1c0.3-0.3,0.8-0.7,1.3-1.1c0.4-0.3,0.7-0.6,0.9-0.7
			c0-0.1,0.1-0.2,0.1-0.3c-0.4,0.3-0.8,0.6-1.1,0.8c-0.7,0.4-1.3,0.6-1.8,0.6h0c-0.8,0-1.5-0.5-2-1.6c-0.4-0.9-0.7-1.8-0.7-2.7
			c0-0.5,0.1-1,0.3-1.5c0.2-0.5,0.5-1,0.9-1.5c0.4-0.5,0.9-1,1.5-1.5c0.6-0.5,1.3-1,2.1-1.5c1.6-1,2.8-1.4,3.8-1.4
			c1.2,0,1.7,0.8,1.7,1.5c0,0.2,0,0.4-0.1,0.6c0.1,0,0.1,0,0.2,0c0.4,0,0.7,0.1,1,0.4c0.2,0.2,0.4,0.5,0.4,1.1
			c0,0.5-0.2,1.2-0.6,2.2c-0.1,0.3-0.3,0.7-0.5,1.2l0.8-0.6c0.2-0.2,0.6-0.2,0.8-0.1c0.3,0.1,0.4,0.4,0.4,0.7l0,0.9
			c0,0.2-0.1,0.5-0.3,0.6l-4.5,3.6c-1.3,2.2-2.5,3.9-3.6,5C236.1,97.8,235.2,98.4,234.4,98.4"/>
		<path class="st1" d="M244.9,87.2l-4.6,3.7c-1.3,2.2-2.5,3.9-3.6,5c-1.1,1.1-1.9,1.6-2.4,1.6c-0.3,0-0.4-0.2-0.4-0.5
			c0-0.7,0.3-1.5,1-2.5c0.3-0.4,0.6-0.8,0.9-1.2c0.4-0.4,0.7-0.7,1-1c0.3-0.3,0.7-0.6,1.2-1c0.5-0.4,0.9-0.7,1-0.8
			c0.9-1.9,1.6-3.3,2-4.3c-0.9,0.9-1.6,1.7-2.3,2.2c-0.6,0.6-1.2,1-1.8,1.4c-0.5,0.3-1,0.5-1.5,0.5c-0.5,0-0.9-0.4-1.3-1.1
			c-0.4-0.8-0.6-1.5-0.6-2.3c0-0.4,0.1-0.8,0.3-1.2c0.2-0.4,0.4-0.8,0.8-1.3c0.4-0.5,0.8-0.9,1.4-1.4c0.6-0.5,1.2-1,2-1.4
			c1.4-0.9,2.5-1.3,3.3-1.3c0.6,0,0.9,0.2,0.9,0.7c0,0.6-0.6,1.2-1.9,1.7c-0.8,0.3-1.6,0.8-2.3,1.3c-0.8,0.6-1.4,1.1-1.9,1.8
			c-0.5,0.6-0.7,1.2-0.7,1.7c0,0.2,0.1,0.4,0.2,0.6c0.1,0.1,0.3,0.2,0.5,0.2c0.3,0,0.7-0.1,1.1-0.4c0.4-0.3,1-0.8,1.8-1.5
			c0.4-0.3,0.9-0.9,1.5-1.6c0.6-0.8,1.1-1.3,1.5-1.7c0.4-0.4,0.8-0.6,1.1-0.6c0.2,0,0.3,0.1,0.4,0.2c0.1,0.1,0.2,0.3,0.2,0.5
			c0,0.4-0.2,1-0.5,1.8c-0.3,0.8-0.9,2.1-1.8,3.9l3.4-2.4L244.9,87.2z"/>
	</g>
	<g>
		<defs>
			<path id="SVGID_5_" d="M199.2,87.9c-0.1-0.2-0.1-0.4-0.1-0.7c0-0.8,0.5-1.6,1.5-2.3c1-0.8,2.7-1.7,5.1-2.8
				c-1.1,1.6-2.1,2.8-2.9,3.7c-0.8,0.9-1.7,1.6-2.7,2.2c-0.3,0.1-0.4,0.2-0.5,0.2C199.4,88.2,199.3,88.1,199.2,87.9 M206.2,79.8
				c-0.7,0-1.7,0.3-3,0.9c-1.3,0.6-2.7,1.5-4.1,2.8c-0.5,0.5-0.9,0.9-1.2,1.2s-0.4,0.6-0.5,0.9c-0.1,0.3-0.1,0.6-0.1,1.1
				c0,0.6,0.1,1.2,0.3,1.7c0.2,0.6,0.5,1,0.8,1.4c0.3,0.4,0.6,0.5,0.8,0.5c0.4,0,1-0.3,1.6-0.9c0.7-0.6,1.7-1.7,3-3.2
				c-0.5,1.4-0.8,2.4-0.8,3.2c0,0.5,0.1,0.8,0.2,1c0.2,0.2,0.4,0.4,0.8,0.4c1,0,2.5-1.2,4.8-3.5c0,0.5,0.1,1.1,0.3,1.6
				c0.2,0.6,0.6,1.2,1,1.6c0.4,0.4,0.9,0.6,1.4,0.6c0.5,0,1-0.1,1.6-0.4c0.5-0.3,1.1-0.7,1.7-1.2c0.6-0.5,1.4-1.2,2.3-2.1
				c0,0.8,0.2,1.5,0.5,2.2c0.4,0.8,0.9,1.2,1.7,1.2c0.5,0,1.2-0.3,2-0.9c0.7-0.5,1.5-1.3,2.3-2.3c0,0.6,0.2,1.2,0.3,1.7
				c0.2,0.6,0.5,0.9,0.8,0.9c0.2,0,0.4-0.1,0.6-0.3c0.2-0.2,0.5-0.6,0.9-1.1c0.4-0.5,0.8-1,1.2-1.5c0.4-0.4,0.8-0.9,1.3-1.4
				c0.8-0.8,1.5-1.3,2-1.6c-0.4,0.7-0.8,1.4-1.2,1.9c-0.3,0.6-0.6,1-0.8,1.3c-0.2,0.3-0.3,0.6-0.4,0.9c-0.1,0.3-0.1,0.6-0.1,0.9
				c0,1,0.4,1.5,1.1,1.5c0.4,0,1-0.3,1.7-0.8c0.7-0.5,1.6-1.4,2.8-2.6c0.1,0.6,0.2,1.2,0.5,1.8c0.4,0.7,0.8,1.1,1.3,1.1
				c0.4,0,0.9-0.2,1.5-0.5c0.5-0.3,1.1-0.8,1.8-1.4s1.4-1.3,2.3-2.2c-0.4,1-1.1,2.4-2,4.3c-0.2,0.2-0.5,0.4-1,0.8
				c-0.5,0.4-0.9,0.8-1.2,1c-0.3,0.3-0.6,0.6-1,1c-0.3,0.4-0.6,0.8-0.9,1.2c-0.7,1-1,1.9-1,2.5c0,0.3,0.1,0.5,0.4,0.5
				c0.5,0,1.3-0.5,2.4-1.6c1.1-1.1,2.2-2.7,3.6-5l4.6-3.7l0-0.9l-3.4,2.4c0.9-1.8,1.5-3.1,1.8-3.9c0.3-0.8,0.5-1.4,0.5-1.8
				c0-0.2-0.1-0.4-0.2-0.5c-0.1-0.1-0.3-0.2-0.4-0.2c-0.3,0-0.7,0.2-1.1,0.6c-0.4,0.4-0.9,1-1.5,1.7c-0.6,0.8-1.1,1.3-1.5,1.6
				c-0.8,0.7-1.4,1.3-1.8,1.5c-0.4,0.3-0.8,0.4-1.1,0.4c-0.2,0-0.4-0.1-0.5-0.2c-0.1-0.1-0.2-0.3-0.2-0.6c0-0.5,0.2-1.1,0.7-1.7
				c0.5-0.6,1.1-1.2,1.9-1.8c0.8-0.6,1.6-1,2.3-1.3c1.3-0.6,1.9-1.1,1.9-1.7c0-0.4-0.3-0.7-0.9-0.7c-0.8,0-1.9,0.4-3.3,1.3
				c-0.8,0.5-1.4,0.9-2,1.4c-0.6,0.5-1,0.9-1.4,1.4c-0.4,0.5-0.6,0.9-0.8,1.3c-0.1,0.2-0.2,0.5-0.2,0.7c-0.8,0.6-1.4,1.1-1.8,1.3
				c-0.4,0.3-0.8,0.4-1,0.4c-0.3,0-0.5-0.2-0.5-0.6c0-0.7,0.8-2,2.5-3.7c0.4-0.4,0.6-0.7,0.6-0.9c0-0.4-0.1-0.8-0.2-1.2
				c-0.1-0.4-0.3-0.6-0.4-0.6c-0.3,0-0.7,0.2-1.2,0.5c-0.9,0.6-1.7,1.2-2.4,1.8c-0.7,0.6-1.3,1.2-1.8,1.8c-0.5,0.6-0.9,1-1.2,1.4
				c-0.3,0.3-0.5,0.5-0.6,0.5c-0.2,0-0.3-0.1-0.3-0.4c0-0.5,0.7-1.5,2.2-3.1c0.2-0.2,0.4-0.4,0.4-0.5c0.1-0.1,0.1-0.2,0.2-0.3
				c0.1-0.1,0.1-0.2,0.1-0.3c0-0.2-0.1-0.4-0.3-0.5c-0.2-0.1-0.4-0.2-0.7-0.2c-0.4,0-0.9,0.2-1.3,0.7c-0.5,0.4-1,1.2-1.7,2.1
				c-0.3,0.5-0.6,0.9-0.7,1.2c-0.1,0.2-0.1,0.3-0.1,0.6c-0.7,0.6-1.3,1-1.8,1.3c-0.5,0.3-1,0.5-1.4,0.5c-0.4,0-0.7-0.1-1-0.3
				c-0.2-0.2-0.4-0.5-0.4-0.8c0-0.4,0.1-0.7,0.4-1c0.3-0.3,0.8-0.8,1.6-1.6c0.3-0.3,0.6-0.7,1-1.3c0.4-0.6,0.6-1.1,0.6-1.4
				c0-0.4-0.3-0.7-0.8-0.7c-1.1,0-2.3,1-3.6,3c-0.3,0.4-0.5,0.8-0.6,1c-0.1,0.2-0.2,0.5-0.3,0.8c0,0.1-0.1,0.3-0.1,0.4
				c-1.1,0.8-2,1.4-2.8,1.8c-0.8,0.4-1.5,0.7-2.1,0.6c-0.6,0-1-0.2-1.4-0.5c-0.3-0.3-0.5-0.8-0.5-1.3c0-0.3,0.1-0.6,0.3-0.8
				c0.2-0.3,0.5-0.5,0.8-0.8c0.3-0.3,1-0.7,1.9-1.4c0.1-0.1,0.2-0.1,0.3-0.1c0.1,0,0.1,0.1,0.1,0.2c0,0.1,0,0.1,0,0.2
				c0,0.1,0,0.1,0,0.2c0,0.3,0.1,0.4,0.4,0.4c0.2,0,0.5-0.2,0.9-0.6c0.4-0.4,0.7-0.9,1-1.4c0.3-0.5,0.5-1,0.5-1.3
				c0-0.3-0.1-0.6-0.3-0.9c-0.2-0.2-0.5-0.3-0.8-0.3c-0.5,0-1.1,0.2-1.9,0.7c-0.8,0.5-1.7,1.2-2.6,2.1c-0.8,0.8-1.3,1.4-1.6,1.9
				c-0.2,0.4-0.4,0.8-0.4,1.3c-1.2,1-2.2,1.6-2.8,1.6c-0.6,0-0.9-0.3-0.9-1c0-0.4,0.1-0.8,0.3-1c0.2-0.3,0.5-0.7,0.9-1.3
				c0.5-0.6,0.7-1,0.7-1.2c0-0.1,0-0.2-0.1-0.4c-0.1-0.1-0.1-0.3-0.2-0.6l-0.2-0.6c0.3-0.1,0.5-0.2,0.7-0.3c0.1-0.1,0.2-0.2,0.2-0.4
				c0-0.1,0-0.3-0.1-0.5c-0.1-0.2-0.2-0.4-0.4-0.6C206.6,79.9,206.4,79.8,206.2,79.8C206.2,79.8,206.2,79.8,206.2,79.8 M223.7,77
				c-0.4,0-0.8,0.2-1.2,0.7c-0.4,0.5-0.6,0.9-0.6,1.3c0,0.3,0.1,0.5,0.3,0.7c0.2,0.2,0.4,0.3,0.7,0.3c0.4,0,0.8-0.2,1.2-0.7
				c0.4-0.5,0.6-0.9,0.6-1.3c0-0.3-0.1-0.6-0.3-0.7C224.2,77.1,224,77,223.7,77C223.7,77,223.7,77,223.7,77 M188.7,80.4
				c0.5-0.7,0.9-1.2,1.1-1.5c0.3-0.4,0.5-0.7,0.6-1c0.2-0.3,0.3-0.6,0.3-0.9c0-0.1,0-0.2,0-0.2c0-0.1,0-0.1,0-0.2l0.8-0.1
				c0.4,0,0.8-0.1,1.1-0.1c0.3,0,0.6,0,0.9,0c1.4,0,2.5,0.2,3.4,0.4c0.9,0.3,1.4,0.6,1.4,1.1c0,0.4-0.2,0.8-0.7,1.2
				c-0.4,0.4-1.1,0.7-2,1.1c-0.9,0.3-2,0.7-3.4,1c-1.4,0.3-3,0.7-4.9,1L188.7,80.4z M192.1,73c-1.1,0-2.3,0.1-3.5,0.3
				c-1.2,0.2-2.3,0.4-3.3,0.7c-1,0.3-1.7,0.6-2.2,0.8c-0.4,0.2-0.8,0.6-1.1,1c-0.3,0.4-0.6,0.9-0.8,1.3c-0.2,0.4-0.3,0.7-0.3,0.9
				c0,0.2,0.1,0.4,0.2,0.5c0.1,0.1,0.3,0.2,0.5,0.2c0.2,0,0.4,0,0.8,0c0.4,0,0.9,0,1.5,0l1.9-0.1c0.2,0,0.3-0.1,0.3-0.2
				c0-0.1-0.1-0.1-0.3-0.2c-0.2,0-0.4,0-0.7,0c-0.3,0-0.6,0-0.8-0.1c-0.2,0-0.3-0.1-0.3-0.2c0-0.1,0.1-0.2,0.2-0.2
				c0.2-0.1,0.5-0.1,0.9-0.2l1.5-0.3c0.6-0.1,1.6-0.3,3-0.5l-2,2.6l-2.4,3.2c-0.9,0.1-1.4,0.2-1.6,0.2c-0.2,0-0.4,0.1-0.6,0.2
				c-0.2,0.1-0.3,0.2-0.5,0.3c-0.1,0.1-0.3,0.4-0.6,0.8c-0.3,0.4-0.5,0.8-0.5,1c0,0.2,0,0.3,0.1,0.4c0.1,0.1,0.5,0.2,1,0.4
				c-1,1.3-1.8,2.4-2.3,3.4c-0.6,1-0.8,1.5-0.8,1.7c0,0.4,0.2,0.5,0.7,0.5c0.2,0,0.4-0.1,0.8-0.4c0.4-0.3,0.6-0.6,0.8-1
				c0.2-0.6,0.9-1.8,2.2-3.6l5.2,2.6c1.1,0.5,1.9,1,2.4,1.2c0.5,0.3,1.1,0.6,1.7,0.9c0.6,0.4,1.1,0.6,1.5,0.8
				c0.4,0.2,0.6,0.3,0.7,0.3c0.3,0,0.4-0.2,0.5-0.5c0.1-0.3,0.1-0.8,0.1-1.4c0-0.6,0-1-0.1-1.2s-0.2-0.5-0.4-0.6
				c-0.2-0.2-0.6-0.4-1.3-0.8c-0.5-0.3-1.1-0.6-2-1c-0.8-0.4-1.9-0.9-3.1-1.4c-1.2-0.5-2.5-1-3.9-1.5c1.9-0.1,3.6-0.2,5.1-0.4
				c1.5-0.2,2.8-0.5,3.9-0.7c1.1-0.3,1.9-0.6,2.4-0.8c0.7-0.3,1.2-0.8,1.7-1.3c0.5-0.5,0.8-1.1,1-1.7c0.2-0.6,0.4-1.3,0.4-1.9
				c0-0.7-0.2-1.3-0.7-1.9c-0.4-0.6-1.1-1-1.9-1.3c-0.3-0.1-0.8-0.2-1.3-0.4c-0.6-0.1-1.2-0.2-1.9-0.3c-0.7-0.1-1.4-0.1-2.1-0.1
				C192.2,73,192.1,73,192.1,73"/>
		</defs>
		<clipPath id="SVGID_6_">
			<use xlink:href="#SVGID_5_"  style="overflow:visible;"/>
		</clipPath>
		
			<linearGradient id="SVGID_7_" gradientUnits="userSpaceOnUse" x1="-16.3709" y1="502.7192" x2="-15.3707" y2="502.7192" gradientTransform="matrix(0 24.5329 24.5329 0 -12120.8652 474.6667)">
			<stop  offset="0" style="stop-color:#FFDC00"/>
			<stop  offset="0.8359" style="stop-color:#FFFFFF"/>
			<stop  offset="1" style="stop-color:#FFFFFF"/>
		</linearGradient>
		<rect x="179.7" y="73" class="st5" width="65.2" height="24.5"/>
	</g>
	<g>
		<path class="st2" d="M163,43v-0.7h-2.6l2.6-4.6v-0.6h-3.4v0.7h2.5l-2.6,4.6V43H163z M158.6,37.1h-0.8V43h0.8V37.1z M158.6,35.1
			h-0.8v1h0.8V35.1z M156,39.6h-2.4c0-0.7,0.3-1.9,1.2-1.9C155.5,37.7,156,38,156,39.6 M156.8,40.2c0-2.5-0.8-3.1-2-3.1
			c-1.4,0-2,1.1-2,2.9c0,2.4,0.8,3.1,2,3.1c1.1,0,1.8-0.6,1.9-1.9L156,41c-0.1,1-0.5,1.4-1.2,1.4c-0.7,0-1.2-0.6-1.2-2.3
			C153.6,40.2,156.8,40.2,156.8,40.2 M152.4,37.1h-0.8l-0.9,3.9c0,0.1-0.1,0.6-0.2,1c0-0.4-0.1-0.9-0.2-1l-0.8-3.9h-0.8l-0.9,3.9
			c0,0.1-0.2,0.7-0.2,1c0-0.3-0.1-0.9-0.2-1l-0.9-3.9h-0.8l1.5,5.9h0.8l0.9-4.3c0-0.1,0.1-0.5,0.1-0.6c0,0.1,0.1,0.5,0.1,0.6L150,43
			h0.8L152.4,37.1z M145.2,43v-4.2c0-1.3-0.6-1.8-1.5-1.8c-0.7,0-1.2,0.4-1.4,0.8v-3.3h-0.8V43h0.8v-4.2c0.1-0.6,0.6-1.1,1.2-1.1
			c0.6,0,0.9,0.4,0.9,1.2V43H145.2z M140.6,41.1l-0.8-0.1c-0.1,1-0.4,1.5-1.1,1.5c-0.7,0-1.2-0.6-1.2-2.4c0-1.9,0.5-2.4,1.2-2.4
			c0.7,0,1,0.5,1.1,1.3l0.8-0.2c-0.1-1-0.7-1.8-1.9-1.8c-1.4,0-2,0.9-2,3c0,2.3,0.7,3,2,3C139.9,43.1,140.4,42.4,140.6,41.1
			 M136.1,40.6c0-1.3-0.6-1.9-1.7-2.3c-0.2-0.1-0.8-0.3-1.1-0.4c-1-0.3-1.2-0.7-1.2-1.4c0-0.8,0.5-1.3,1.4-1.3
			c0.9,0,1.3,0.5,1.5,1.2c0,0.1,0,0.3,0,0.3l0.9-0.2c0-0.1,0-0.2,0-0.2c-0.2-1.1-0.9-1.8-2.3-1.8c-1.6,0-2.3,0.9-2.3,2.1
			c0,1.1,0.6,1.7,1.7,2c0.4,0.1,0.8,0.3,1.2,0.4c0.9,0.4,1.2,0.8,1.2,1.7c0,1-0.4,1.7-1.6,1.7c-1,0-1.5-0.6-1.6-1.4
			c0-0.2,0-0.5,0-0.7l-1,0.2c0,0.2,0,0.4,0,0.6c0.1,1.2,0.8,2.1,2.6,2.1C135.3,43.1,136.1,42.2,136.1,40.6 M128.3,37.8v-0.6h-0.8v-2
			l-0.8,0.4v1.6h-0.7v0.6h0.7v4c0,0.9,0.3,1.2,1.1,1.2c0.1,0,0.4,0,0.5,0v-0.7c0,0-0.3,0-0.3,0c-0.3,0-0.5-0.2-0.5-0.7v-3.9H128.3z
			 M125.6,37.8v-0.8h-0.1c-0.6,0-1.1,0.3-1.4,0.9v-0.9h-0.8V43h0.8v-3.8c0.1-0.8,0.5-1.4,1.3-1.4C125.5,37.8,125.6,37.8,125.6,37.8
			 M121.5,40c0,1.7-0.4,2.4-1.3,2.4c-0.8,0-1.3-0.6-1.3-2.4c0-1.7,0.5-2.4,1.3-2.4C121,37.7,121.5,38.3,121.5,40 M122.3,40
			c0-2.2-0.7-3-2.1-3c-1.3,0-2.1,0.8-2.1,3c0,2.2,0.7,3,2.1,3C121.5,43.1,122.3,42.2,122.3,40 M116.6,40c0,1.9-0.4,2.3-1.2,2.3
			c-0.6,0-1.2-0.5-1.2-1.2c0-0.1,0-0.7,0-1.1c0-0.4,0-0.9,0-1c0-0.8,0.5-1.4,1.2-1.4C116.1,37.7,116.6,38.2,116.6,40 M117.4,40.1
			c0-2.4-0.8-3-1.8-3c-0.6,0-1.1,0.3-1.4,0.7v-0.7h-0.8v7.7h0.8v-2.3c0.2,0.4,0.8,0.6,1.4,0.6C116.6,43.1,117.4,42.4,117.4,40.1
			 M112.2,43v-4.1c0-1.1-0.4-1.8-1.5-1.8c-0.7,0-1.1,0.3-1.4,0.8c-0.2-0.5-0.7-0.8-1.3-0.8c-0.7,0-1.1,0.4-1.3,0.7v-0.7h-0.8V43h0.8
			v-4.2c0.1-0.6,0.4-1.1,1.1-1.1c0.6,0,0.9,0.4,0.9,1.2V43h0.8v-4.2c0-0.6,0.4-1.1,1-1.1c0.6,0,0.9,0.4,0.9,1.2V43H112.2z
			 M104.6,34.5h-0.9V43h0.9V34.5z"/>
	</g>
	<rect x="100" class="st2" width="1200" height="5"/>
</g>
</svg>
