<?xml version="1.0" encoding="utf-8"?>
<!-- Generator: Adobe Illustrator 19.1.0, SVG Export Plug-In . SVG Version: 6.00 Build 0)  -->
<svg version="1.1" id="Ebene_1" xmlns="http://www.w3.org/2000/svg" xmlns:xlink="http://www.w3.org/1999/xlink" x="0px" y="0px"
	 viewBox="0 0 600 300" style="enable-background:new 0 0 600 300;" xml:space="preserve">
<style type="text/css">
	.st0{fill:#E30613;}
	.st1{fill:#1D1D1B;}
	.st2{fill:#FFFFFF;}
	.st3{clip-path:url(#SVGID_2_);fill:#FFFFFF;}
	.st4{clip-path:url(#SVGID_4_);fill:#FFFFFF;}
	.st5{clip-path:url(#SVGID_6_);fill:url(#SVGID_7_);}
</style>
<g>
	<g>
		<path class="st0" d="M388.5,124.7c12.1-5.7,16.8-21.2,26.6-35.5c7.9-11.6,18.7-27.1,28.1-25.6c15.8,2.5-14.3,48.3,0.7,60.1
			c8.6,6.7,29.8,3,50.8,0.2c20.4-2.5,51.2-5.7,53.5,2.7c1.7,6.9-26.4,9.9-43.6,15.5c-17.2,5.9-37.7,8.4-44.3,14.3
			c-6.2,5.4,46.3,53.5,32,60.1c-11.1,5.2-28.1-4.4-42.9-14c-10.6-6.9-23.7-20.7-41.1-18.5c-15.8,2-28.8,10.1-44.3,24.9
			c-8.9,8.4-22.2,22.2-27.6,16.8c-3.2-3.2-4.4-11.1-1.7-18.7c5.4-15.5,37-35.2,28.8-46.8c-6.7-9.6-22.2-9.4-36.2-13.8
			c-14.3-4.4-36-10.8-33.8-18.5c1.7-5.7,27.8-2.7,45.6-1.2C358.5,128.6,373.5,131.8,388.5,124.7"/>
		<path class="st1" d="M307.7,126.6c-11.8,0-12.6,2-12.6,2.2c-1.7,5.7,19,12.1,30.1,15.5l2.7,0.7c4.2,1.2,8.4,2.2,12.6,3
			c10.1,2.2,19.5,4.2,24.6,11.6c5.7,8.1-3.7,18.2-13.8,28.8c-6.2,6.7-12.8,13.6-14.8,19.5c-2.5,7.1-1.2,14.3,1.5,17
			c3.9,3.7,16.5-8.6,23.4-15c0.5-0.5,1.2-1.2,1.7-1.7c16.8-16,29.8-23.4,45.3-25.4c14.5-1.7,26.1,6.9,35.5,13.8
			c2.5,1.7,4.7,3.4,6.9,4.9c14.8,9.6,31,18.5,41.1,13.8c0.7-0.2,1.2-0.7,1.5-1.7c1.2-5.7-10.8-21.2-20-32.5
			c-12.1-15-17.5-22.7-14-25.9c4.4-3.9,14-6.4,25.1-9.1c6.7-1.7,13.3-3.4,19.7-5.7c5.9-2,12.8-3.7,19.5-5.2
			c9.9-2.2,20.9-4.9,22.7-7.6c0.2-0.2,0.2-0.5,0-0.7c-0.2-1.2-2.7-4.4-18.2-4.2c-10.6,0-23.4,1.5-33.5,2.7c-2.5,0.2-4.7,0.5-6.9,1
			c-19,2.5-37,4.9-45.1-1.5c-8.6-6.7-4.4-22.4-0.5-36.5c2.5-9.1,5.2-18.5,3-21.9c-0.5-0.7-1.2-1.2-2.5-1.5
			c-8.4-1.2-20.2,15.8-26.4,24.9c-3,4.2-5.4,8.6-7.6,12.8c-5.4,9.9-10.6,19-19.5,23.2l-0.7-1.5l0.7,1.5c-13.1,6.2-26.4,4.7-41.4,3.2
			c-2.7-0.2-5.7-0.5-8.9-0.7c-1.2,0-2.7-0.2-3.9-0.2c-8.9-0.7-18.7-1.7-26.6-1.7C308.2,126.6,308,126.6,307.7,126.6 M339.5,228.9
			c-1.5,0-3-0.5-4.2-1.7c-3.9-3.9-4.9-12.8-2.2-20.4c2.2-6.7,9.1-13.8,15.5-20.7c8.6-9.1,17.5-18.7,13.6-24.4
			c-4.4-6.2-12.8-7.9-22.7-10.1c-4.2-1-8.6-1.7-12.8-3.2l-2.7-0.7c-16.5-5.2-35-11.1-32.3-19.7c1.7-5.7,14.8-5.4,43.6-3
			c1.5,0,2.7,0.2,3.9,0.2c3,0.2,5.9,0.5,8.9,0.7c15.3,1.5,27.3,2.7,39.7-3c7.9-3.7,12.6-12.1,18-21.7c2.5-4.2,4.9-8.9,7.9-13.1
			c9.6-14.3,20-27.8,29.8-26.4c2.2,0.2,3.7,1.2,4.7,3c3,4.7,0.5,14-2.5,24.6c-3.7,12.8-7.6,27.3-0.7,32.8c7.1,5.4,24.1,3.2,42.4,0.7
			c2.2-0.2,4.7-0.5,7.1-1c37.4-4.7,53.5-3.4,55.4,4.2c0.2,1.2,0,2.2-0.5,3.2c-2.5,3.9-11.1,6.2-24.9,9.4c-6.7,1.5-13.6,3.2-19.2,4.9
			c-6.7,2.2-13.6,3.9-20.2,5.7c-10.1,2.5-19.7,4.9-23.4,8.4c-0.5,2.5,8.4,13.8,14.3,21.2c13.1,16.5,22.2,28.6,20.4,35.5
			c-0.5,1.7-1.5,3.2-3.2,3.9c-11.6,5.4-28.1-3.4-44.6-14c-2.2-1.5-4.7-3.2-7.1-5.2c-9.4-6.9-19.7-14.8-33-13.1
			c-14.5,1.7-27.1,8.9-43.4,24.4c-0.5,0.5-1.2,1.2-1.7,1.7C355.8,219.8,346.1,228.9,339.5,228.9"/>
	</g>
	<path class="st1" d="M57.4,196.6l21.2-56.4H115l-21.4,56.4H57.4z M50,201.8h47.3l25.4-66.8H75.1L50,201.8z"/>
	<g>
		<path class="st1" d="M224.2,196.6h36.5l19.7-52.5c-0.5-0.5-2.2-1.5-7.4-2.5c-4.9-1-10.3-1.5-15.8-1.5H129.3l-21.2,56.4h36.2
			l18.7-49.8h23.7L168,196.6h36.2l18.7-49.8h19.7L224.2,196.6z M264.3,201.8h-47.6l18.7-49.8h-8.6l-18.7,49.8h-47.3l18.7-49.8H167
			l-18.7,49.8H101l25.1-66.8h131.6c5.7,0,11.3,0.5,16.5,1.5c5.4,1,11.6,3,11.6,7.4c0,0.7-0.2,1.2-0.5,2L264.3,201.8z"/>
		<path class="st1" d="M329.9,159.4h67.8l2.7-7.4h-68L329.9,159.4z M401.3,164.6h-78.8l6.7-17.7h79.1L401.3,164.6z M389.5,196.6H426
			l8.6-22.4c-0.2-0.5-3-3-20.4-3.7v-5.2c5.7,0,11.3-0.7,16.8-1.7c8.4-1.7,9.1-3.4,9.1-3.4l0,0c1.2-2.7,2.2-5.7,3.4-8.6
			c2-4.9,2.5-6.7,2.5-7.1c-0.2-0.2-1.5-1.5-7.1-2.5c-4.9-1-10.1-1.5-15.8-1.5H295.1L274,196.9h36.2l9.9-25.6h79.3L389.5,196.6z
			 M429.7,202h-47.6l9.6-25.6h-68.2l-9.9,25.6h-47.3l25.1-66.8H423c5.9,0,11.6,0.5,16.8,1.5c5.4,1,11.3,2.7,11.3,7.4
			c0,1.2-0.2,3.2-2.7,9.4c-1.2,2.7-2.2,5.7-3.4,8.4c-1,2.7-4.2,4.7-10.6,6.2c3.7,1.5,5.4,3.4,5.4,6.2c0,0.7-0.2,1.2-0.5,2L429.7,202
			z"/>
	</g>
	<polygon class="st2" points="53.7,199.1 95.6,199.3 119,137.7 76.9,137.7 	"/>
	<g>
		<g>
			<defs>
				<path id="SVGID_1_" d="M104.7,199.3h41.9l18.7-49.8h18l-18.7,49.8h41.9l18.7-49.8h14l-18.7,49.8h42.1l20.4-54.4
					c0.2-0.2,0.2-0.5,0.2-0.7c0-2-3.2-3.7-9.6-4.9c-5.2-1-10.6-1.5-16.3-1.5H127.9L104.7,199.3z"/>
			</defs>
			<clipPath id="SVGID_2_">
				<use xlink:href="#SVGID_1_"  style="overflow:visible;"/>
			</clipPath>
			<rect x="41.6" y="127.4" class="st3" width="1167.8" height="149.1"/>
		</g>
	</g>
	<g>
		<g>
			<defs>
				<path id="SVGID_3_" d="M326.2,162.1l4.7-12.6h73.4l-4.7,12.6H326.2z M270,199.3h41.9l9.9-25.6h73.7l-9.6,25.6h42.1l9.1-24.1
					c0.2-0.2,0.2-0.5,0.2-1c0-3.7-7.6-5.7-22.9-6.2c5.9,0,11.6-0.7,17.2-1.7c6.7-1.5,10.3-3.2,11.1-5.2c1.2-2.7,2.2-5.7,3.4-8.6
					c1.7-4.2,2.7-6.9,2.7-8.4c0-2.2-3.2-3.7-9.4-4.9c-4.9-1-10.3-1.5-16.3-1.5H293.4L270,199.3z"/>
			</defs>
			<clipPath id="SVGID_4_">
				<use xlink:href="#SVGID_3_"  style="overflow:visible;"/>
			</clipPath>
			<rect x="41.6" y="127.4" class="st4" width="1167.8" height="149.1"/>
		</g>
	</g>
	<g>
		<path class="st1" d="M280.4,182.1h0.2c3.4,0,6.4,0.5,8.9,1.2c3.2,1,4.9,2.5,4.9,4.7c0,0.2,0,0.2,0,0.5c0.2-1,0.2-1.7,0.2-2.7
			c0-1.2-0.5-2.2-1.2-3.4c-0.7-1-2.2-2-3.7-2.5l0,0c-0.7-0.2-1.7-0.5-3-0.7c-1.2-0.2-2.7-0.5-4.4-0.7c-1.5-0.2-3.2-0.2-4.9-0.2
			c-2.7,0-5.7,0.2-8.6,0.5c-3,0.5-5.4,1-7.9,1.7c-2.2,0.7-3.9,1.2-4.9,2c-0.7,0.5-1.5,1.2-2.2,2c-0.7,1-1.2,1.7-1.7,2.7
			c-0.2,0.5-0.2,1-0.5,1.2c0.5,0,1,0,1.5,0c0.7,0,1.5,0,2.2,0c0-0.5,0.2-1.7,2-2.2c0.5-0.2,1.2-0.5,2.5-0.5c1-0.2,2.2-0.5,3.7-0.7
			h0.2c1.5-0.2,3.9-0.7,7.6-1.2c0.5,0,0.7,0,1,0.2c0.2-0.2,0.7-0.5,1.2-0.5c0.2,0,1,0,2-0.2c1,0,2-0.2,2.7-0.2
			C279.1,182.1,279.9,182.1,280.4,182.1 M275.7,186.3c0,0.7-0.2,1.5-0.7,2.2c-0.5,1-1,2-1.7,2.7c-0.5,0.7-1.5,2-3,3.7l-0.2,0.2
			c2.7-0.5,4.9-1,6.9-1.5c3.2-0.7,5.9-1.5,8.1-2.5c2-0.7,3.4-1.5,4.4-2.2c0.5-0.2,1-0.7,1-1.2c-0.2-0.2-0.7-0.5-2-1
			c-2.2-0.7-4.7-1-7.9-1c-0.7,0-1.2,0-2,0C277.9,186,276.9,186.3,275.7,186.3C275.9,186.3,275.7,186.3,275.7,186.3 M293.7,190.7
			c-0.5,0.5-1,1-1.5,1.7c-1.2,1-3,2-5.4,3c-2.2,0.7-5.2,1.7-8.6,2.5c-3.2,0.7-7.1,1.7-11.6,2.5c2.5-0.2,4.7-0.5,6.9-0.7
			c3.7-0.5,6.9-1,9.4-1.7c2.5-0.7,4.4-1.2,5.7-2c1.5-0.7,2.5-1.5,3.4-2.7C292.4,192.4,293.2,191.4,293.7,190.7 M263.4,198.8
			c-0.5,0.5-0.7,1-1.2,1.5c0,0,0,0-0.2,0.2c1,0,2,0,2.7-0.2c-0.5,0-1-0.5-1.2-1C263.6,199.1,263.4,199.1,263.4,198.8 M250.6,216.1
			c0,0.2-0.2,0.2-0.2,0.5c-0.5,0.7-0.7,1.5-1,2c0.5-0.5,0.7-0.7,1-1.5C250.3,216.8,250.6,216.6,250.6,216.1 M271.5,213.4
			c2.7,1.5,4.7,2.5,5.9,3c1.2,0.7,2.7,1.5,4.2,2.2c1.5,0.7,2.7,1.5,3.4,2h0.2c0-0.5,0.2-1.2,0.2-2.2c0-1.7,0-2.2-0.2-2.5
			c0-0.2-0.2-0.2-0.2-0.5c-0.2-0.2-1-0.7-3-1.7c-1.2-0.5-2.7-1.5-4.7-2.2c-2-1-4.7-2-7.6-3.2c-3-1.2-6.2-2.5-9.6-3.7
			c-1-0.2-1.5-1.2-1.2-2.2c0-0.2,0.2-0.7,0.5-1c-1.2,0.2-2,0.2-2.2,0.2c-0.2,0-0.5,0-0.7,0.2l0,0c-0.2,0-0.2,0.2-0.5,0.2l0,0
			c0,0-0.5,0.5-1.2,1.5c-0.2,0.5-0.5,0.7-0.7,1c0.2,0.2,0.7,0.2,1.5,0.5c0.5,0.2,1,0.7,1.2,1.2c0,0.2,0,0.5,0,0.7
			c0.5-0.5,1.5-0.7,2.2-0.2L271.5,213.4z M285.8,225L285.8,225c-0.5,0-1.2-0.2-2.5-1c-1-0.5-2.2-1.2-3.7-2c-1.5-0.7-3-1.5-4.2-2.2
			c-1.2-0.7-3.2-1.7-5.9-3l0,0l-11.3-5.7c-3.4,4.7-4.2,6.4-4.2,6.9c-0.5,1.5-1.2,2.7-2.7,3.7c-1.2,1-2.2,1.5-3.2,1.5l0,0
			c-1,0-2-0.2-2.5-0.7c-0.7-0.5-1.2-1.5-1.2-2.5c0-0.7,0.2-1.5,2.2-5.2c1.2-2,2.7-4.2,4.4-6.7c-0.2,0-0.2-0.2-0.5-0.2
			c-1-0.5-1.5-1.7-1.2-3c0-0.7,0.5-2,1.5-3.2c0.7-1,1.2-1.7,1.7-2.2c0.5-0.5,1-1,1.7-1.2c0.5-0.2,1.2-0.5,2-0.5
			c0.5,0,1.5-0.2,3.2-0.5c1.7-2.2,3.4-4.7,5.4-7.1c0.7-1,1.5-2,2-2.7c-1,0.2-2,0.2-2.5,0.5h-0.2c0.2,0.2,0.2,0.7,0.2,1
			c0,0.2-0.2,2.2-2.7,2.5l0,0c-0.5,0-2.2,0-4.7,0.2c-1.5,0-2.7,0-3.7,0s-1.7,0-2.2,0c-1.5,0-2.2-0.7-2.7-1.2c-0.5-0.5-1-1.2-1-2.7
			c0-0.7,0.2-1.5,0.7-3c0.5-1.2,1.2-2.5,2.2-3.4c1-1.2,2-2.2,3.4-3c1.2-0.7,3.2-1.5,5.9-2.2c2.5-0.7,5.4-1.2,8.4-1.7
			s6.2-0.7,9.1-0.7c1.7,0,3.7,0.2,5.4,0.2c1.7,0.2,3.4,0.5,4.7,0.7c1.5,0.2,2.7,0.7,3.4,1c2.5,0.7,4.2,2,5.7,3.7
			c1.5,1.7,2,3.7,2,5.7c0,1.7-0.2,3.7-1,5.4c-0.7,1.7-1.7,3.4-3,4.9c-1.2,1.5-3,2.7-4.7,3.7c-1.5,0.7-3.4,1.5-6.4,2.2
			c-2.7,0.7-6.2,1.2-9.9,1.7c-1.2,0.2-2.7,0.2-3.9,0.5c0.5,0.2,1,0.5,1.5,0.7c3,1.2,5.7,2.5,7.6,3.4s3.7,1.7,4.9,2.5
			c2.5,1.2,3.2,1.7,3.4,2c0.7,0.7,1.5,1.5,1.7,2.5c0.2,0.7,0.2,2,0.2,3.4c0,1.7-0.2,3.2-0.5,3.9C288.5,224.5,287,225,285.8,225"/>
		<path class="st1" d="M273.7,184.5c0,0.2,0,0.2,0,0.5c0,0.2,0,0.2,0,0.5c0,0.7-0.2,1.5-0.7,2.2c-0.5,0.7-1,1.7-1.5,2.5
			c-0.7,0.7-1.5,2.2-2.7,3.7s-2.5,3-3.4,4.4c4.7-1,8.9-1.7,12.1-2.5c3.4-0.7,6.2-1.7,8.4-2.5c2.2-0.7,3.7-1.7,4.9-2.7s1.7-2,1.7-3
			c0-1.2-1.2-2-3.4-2.7c-2.2-0.7-5.2-1-8.4-1c-0.7,0-1.5,0-2.2,0s-1.7,0-2.7,0.2C274.7,184.3,274,184.5,273.7,184.5 M270.5,215.1
			l-12.8-6.4c-3.2,4.4-5.2,7.4-5.4,8.9c-0.2,1-1,2-2,2.5c-1,0.7-1.7,1-2,1c-1.2,0-1.7-0.5-1.7-1.2c0-0.5,0.7-2,2-4.2
			c1.5-2.5,3.2-5.2,5.7-8.4c-1.2-0.5-2.2-1-2.5-1c-0.2-0.2-0.5-0.5-0.2-1c0-0.5,0.5-1.2,1.2-2.5c0.7-1,1.2-1.5,1.5-2
			c0.2-0.2,0.7-0.5,1.2-0.7c0.5-0.2,1-0.2,1.5-0.5c0.5,0,1.7-0.2,3.9-0.5c1.7-2.5,3.7-4.9,5.9-7.9c2.2-2.7,3.7-4.9,4.9-6.4
			c-3.4,0.5-6.2,0.7-7.4,1.2c-1.5,0.2-2.7,0.5-3.7,0.7c-1,0.2-1.7,0.2-2.2,0.5c-0.5,0.2-0.5,0.2-0.5,0.5c0,0.2,0.2,0.5,0.7,0.5
			c0.5,0,1.2,0.2,2,0.2s1.5,0,1.7,0c0.5,0,0.7,0.2,0.7,0.5c0,0.2-0.2,0.2-0.7,0.5c-0.5,0-2.2,0-4.7,0.2c-1.5,0-2.7,0-3.7,0
			s-1.7,0-2,0c-0.5,0-1-0.2-1.2-0.5c-0.2-0.2-0.5-0.7-0.5-1.2s0.2-1,0.7-2.2c0.5-1,1-2,2-3.2c0.7-1,1.7-2,2.7-2.5
			c1.2-0.7,3-1.5,5.4-2c2.5-0.7,5.2-1.2,8.1-1.7s5.9-0.7,8.9-0.7c1.7,0,3.4,0.2,5.2,0.2c1.7,0.2,3.2,0.5,4.7,0.7s2.5,0.5,3.2,1
			c2,0.7,3.7,1.7,4.7,3.2c1,1.5,1.7,3,1.7,4.7c0,1.7-0.2,3.2-1,4.7c-0.5,1.5-1.5,3-2.5,4.2c-1.2,1.2-2.5,2.2-4.2,3.2
			c-1.2,0.7-3.2,1.2-5.9,2c-2.7,0.7-5.9,1.2-9.6,1.7c-3.7,0.5-8.1,1-12.6,1c3.4,1.2,6.7,2.5,9.6,3.7c3,1.2,5.7,2.5,7.6,3.4
			s3.7,1.7,4.9,2.5c1.7,1,2.7,1.5,3.2,2c0.5,0.5,0.7,1,1,1.5c0.2,0.5,0.2,1.7,0.2,3c0,1.5,0,2.7-0.2,3.4c-0.2,0.7-0.5,1.2-1.2,1.2
			c-0.2,0-0.7-0.2-1.7-0.7c-0.7-0.5-2-1-3.7-2c-1.5-0.7-3-1.7-4.2-2.2C275.2,217.6,273.2,216.6,270.5,215.1"/>
		<path class="st1" d="M306.7,206.5c0.2,0,0.2,0,0.5,0.2c0.2,0.2,0.5,0.2,0.5,0.5c0.2-0.2,0.2-0.5,0.5-1c0.5-0.7,1.2-2,2.5-3.4
			c1-1.2,1.2-1.7,1.2-2l0,0c0-0.2-0.2-0.5-0.2-0.5C309.9,202.5,308.2,204.8,306.7,206.5 M304.3,203.3c-2,1.2-3.7,2.2-4.9,3
			c-2,1.5-3,3-3,4.2c0,0,0,0,0,0.2c2.2-1.2,3.9-3,5.9-4.9C302.8,205,303.5,204.3,304.3,203.3 M295.6,203c-1.2,1.2-2.2,2-2.7,2.7
			c-0.5,0.5-0.7,1-0.7,1.5c-0.2,0.5-0.2,1.2-0.2,2.2c0,1.2,0.2,2.5,0.7,3.4c0.5,1.2,1,2,1.7,2.7c0.2,0.2,0.5,0.5,0.5,0.5
			c0.2,0,1-0.5,2.5-1.7l0,0c-0.7,0.2-1.2,0.5-1.7,0.5l0,0c-1.2,0-2.2-0.7-2.7-1.7c-0.5-0.7-0.5-1.7-0.5-2.7c0-2.7,1.5-5.2,4.7-7.4
			c2.7-2,6.9-4.2,13.1-6.9c0.2-0.2,0.7-0.2,1-0.2c0.2-0.2,0.5-0.5,1-0.7c0.2,0,0.5-0.2,0.5-0.2c-0.2-0.2-0.2-0.5-0.5-0.7l0,0
			c-1,0-3,0.5-6.7,2C302.3,197.9,299.1,200.1,295.6,203 M306.2,217.6h0.2c0.5,0,2-0.2,5.2-3.2c-0.2,0-0.2,0-0.5,0
			c-2.2,0-3.9-1.2-4.2-3.4c-1,2.7-1.2,4.4-1.2,5.2C306,217.1,306.2,217.3,306.2,217.6 M306.5,221.5L306.5,221.5
			c-1.5,0-3-0.7-3.7-1.7c-0.5-1-0.7-2.2-0.7-3.7c0-0.2,0-0.5,0-0.7c-0.7,0.7-1.5,1.5-2.2,2.2c-2,2-3.7,3-5.4,3l0,0
			c-1.5,0-2.7-1.2-3.4-2c-1-1-1.7-2.2-2.2-3.9c-0.7-1.7-1-3.4-1-5.2c0-1.2,0.2-2.2,0.5-3.2c0.2-1,0.7-2,1.5-3c0.7-0.7,1.7-2,3-3.2
			l0,0c3.7-3.2,7.1-5.7,10.6-7.1c3.4-1.7,6.2-2.5,8.4-2.5l0,0c0.7,0,1.7,0.2,2.7,1.2c0.5,0.5,1,1.2,1.2,2c0.2,0.7,0.5,1.5,0.5,2
			c0,1-0.5,2-1.5,2.5l0,0l0,0c0.2,0.5,0.2,0.7,0.5,1c0.2,0.5,0.2,1,0.2,1.7c0,1-0.5,2.2-2,4.2c-1,1.5-1.7,2.5-2.2,3.2
			c-0.2,0.2-0.2,1-0.2,1.5c0,0.2,0,0.5,0,0.5h0.2l0,0c0.2,0,2-0.2,6.2-3.9c0.5-0.5,1.5-0.7,2.2-0.2c0.7,0.2,1.2,1,1.2,1.7v2
			c0,0.5-0.2,1-0.5,1.2C312.1,220.3,308.7,221.5,306.5,221.5"/>
		<path class="st1" d="M310.7,198.1c-5.9,2.7-10.1,4.9-12.6,6.9c-2.5,2-3.7,3.7-3.7,5.7c0,0.7,0,1.2,0.2,1.7s0.5,0.7,1,0.7
			c0.2,0,0.7-0.2,1.2-0.5c2.5-1.5,4.7-3.2,6.7-5.4C305.5,205,308,201.8,310.7,198.1 M294.4,201.5c3.4-3.2,6.9-5.4,10.1-6.9
			c3.2-1.5,5.7-2.2,7.6-2.2c0.5,0,1,0.2,1.2,0.7c0.5,0.5,0.7,0.7,1,1.5c0.2,0.5,0.2,1,0.2,1.2c0,0.5-0.2,0.7-0.5,1
			c-0.2,0.2-1,0.5-1.7,0.7c0.2,0.2,0.2,0.7,0.5,1.5c0.2,0.5,0.5,1,0.5,1.5c0.2,0.2,0.2,0.7,0.2,1c0,0.5-0.5,1.5-1.7,3
			c-1,1.5-2,2.5-2.2,3.2c-0.5,0.7-0.7,1.5-0.7,2.5c0,1.7,0.7,2.5,2.2,2.5c1.5,0,4.2-1.5,7.4-4.4v2c-5.7,6.4-9.9,9.4-12.3,9.4
			c-1,0-1.5-0.2-2-1c-0.2-0.5-0.5-1.5-0.5-2.5c0-1.7,0.7-4.4,2-7.9c-3.4,3.7-5.9,6.2-7.4,7.9c-1.7,1.5-3,2.2-3.9,2.2
			c-0.5,0-1.2-0.5-2-1.2c-0.7-1-1.5-2-2-3.4c-0.5-1.5-0.7-2.7-0.7-4.2c0-1,0-2,0.2-2.7s0.5-1.5,1.2-2.2
			C292.2,203.8,293.2,202.8,294.4,201.5"/>
		<path class="st1" d="M334.3,195.6c-0.2,0-1.5,0.2-3.7,1.5c-2,1.2-3.9,2.7-6.2,4.9c-2.2,2.2-3.2,3.4-3.7,4.2c-0.5,1-0.7,2-0.7,3.2
			c0,1.5,0.2,3,0.7,4.4c0.5,1.2,1.2,2.5,2,3.2c0.7,0.7,1.2,1,2,1l0,0c1,0,2-0.2,3-0.7c0.7-0.2,1.2-0.7,2-1.2c-1,0.2-2,0.5-3,0.5
			c-2,0-3.4-0.7-4.7-2c-1.2-1.2-2-2.7-2-4.7c0-1.2,0.5-2.2,1.2-3.2c0.7-0.7,1.5-1.7,2.5-2.2c0.7-0.7,2.5-1.7,4.7-3.4
			c0.7-0.7,1.7-0.7,2.2-0.5c0.7,0.2,1.5,0.7,1.7,1.2c0.7-0.7,1.5-1.7,2-3c0.7-1.5,1-2,1-2.2c0-0.5-0.2-0.5-0.2-0.7
			C334.8,195.9,334.6,195.6,334.3,195.6L334.3,195.6z M325,222L325,222c-1.7,0-3.4-0.7-4.9-2c-1.2-1.2-2.2-2.7-3-4.7
			c-0.7-1.7-1-3.7-1-5.9c0-2,0.5-3.7,1.2-5.2c0.7-1.5,2.2-3,4.4-5.2c2.5-2.2,4.7-4.2,6.9-5.4c2.5-1.5,4.2-2.2,5.7-2.2l0,0
			c1.2,0,2.5,0.5,3.4,1.5s1.5,2.2,1.5,3.4c0,1-0.5,2.5-1.5,3.9c-0.7,1.5-1.7,2.7-2.7,3.9c-1.5,1.5-2.5,2.2-3.7,2c-1,0-2-0.5-2.5-1.2
			c-1.2,1-2.2,1.7-3,2c-0.7,0.5-1.2,1-1.7,1.5c-0.2,0.5-0.2,0.7-0.2,1c0,1,0.5,1.5,0.7,2c0.2,0.2,0.7,0.7,2,0.7l0,0
			c1,0,2.5-0.5,4.2-1.5c2-1,4.2-2.7,6.9-4.7c0.5-0.5,1.5-0.5,2-0.2c0.7,0.2,1,1,1,1.7v2.2c0,0.5-0.2,1-0.5,1.5
			c-2.5,2.5-4.4,4.2-6.2,5.7c-1.7,1.5-3.2,2.5-4.7,3.2C328.2,221.5,326.4,222,325,222"/>
		<path class="st1" d="M339,208.2v2.2c-2.5,2.5-4.4,4.2-5.9,5.4c-1.5,1.2-3,2.2-4.2,3s-2.7,1-3.9,1c-1.2,0-2.5-0.5-3.4-1.5
			s-1.7-2.2-2.5-3.9c-0.5-1.7-0.7-3.2-0.7-5.2c0-1.5,0.2-3,1-4.2c0.7-1.2,2-2.7,3.9-4.7c2.2-2.2,4.4-3.9,6.4-5.2
			c2-1.2,3.4-1.7,4.7-1.7c0.7,0,1.5,0.2,2,0.7c0.5,0.5,0.7,1.2,0.7,2.2c0,0.7-0.5,1.7-1.2,3.2c-0.7,1.2-1.7,2.5-2.5,3.4
			c-1,1-1.7,1.5-2.2,1.5c-0.5,0-1-0.2-1-1c0-0.2,0-0.2,0-0.5s0-0.2,0-0.5c0-0.2,0-0.5-0.2-0.5s-0.5,0-0.7,0.2
			c-2.2,1.5-3.9,2.7-4.7,3.4c-0.7,0.7-1.5,1.2-2,2c-0.5,0.7-0.7,1.2-0.7,2c0,1.2,0.5,2.5,1.2,3.2c0.7,0.7,2,1.2,3.4,1.2
			c1.5,0,3.2-0.5,5.2-1.5C334.1,211.7,336.3,210.2,339,208.2"/>
		<path class="st1" d="M353,191L353,191c0.5,0,1-0.5,1.5-1c0.7-0.7,1-1.5,1-2c0-0.2,0-0.2,0-0.2h-0.2l0,0c-0.2,0-1,0.5-1.5,1
			c-0.7,0.7-1,1.5-1,2.2l0,0l0,0C352.8,191,352.8,191,353,191 M349.8,197.4c-1,0-3.4,0.7-7.1,6.7c-0.7,1.2-1.2,2-1.2,2.2
			c-0.2,0.5-0.2,1-0.5,1.5c-0.2,0.7-0.2,1.2-0.2,2c0,2,0.2,3.9,1.2,5.7c0.7,1.5,1.5,1.7,2.5,1.7c0.5,0,1.7-0.2,3.7-1.7
			c0.2-0.2,0.5-0.5,1-0.7c-0.7,0.2-1.5,0.2-2,0.2c-1.5,0-2.7-0.5-3.7-1.2c-1-1-1.5-2.2-1.5-3.4c0-1.5,0.5-2.7,1.2-3.7
			c0.7-0.7,2-2.2,4.2-4.2c0.5-0.5,1-1.2,2-3C349.6,198.3,349.8,197.6,349.8,197.4L349.8,197.4 M344.2,221L344.2,221
			c-2,0-4.4-0.7-5.9-4.2c-1-2.2-1.5-4.7-1.5-7.1c0-1,0-2,0.2-3c0.2-1,0.5-1.7,0.7-2.5c0.2-0.5,0.7-1.5,1.5-2.7
			c3.7-5.4,6.9-8.4,10.3-8.4c-0.7-0.7-1-1.7-1-2.7c0-1.5,0.7-3,2-4.4c1.2-1.7,3-2.5,4.4-2.5l0,0c1.2,0,2.2,0.5,3,1.2
			c0.5,0.5,1.2,1.5,1.2,3.2c0,1.5-0.7,3-2,4.4c-1.2,1.5-2.7,2.5-4.2,2.5c0.5,0.7,0.7,1.5,0.7,2c0,1.2-0.5,2.5-1.7,4.4
			c-1,1.7-2,3-2.7,3.7c-2.5,2.2-3.4,3.2-3.7,3.7s-0.5,0.7-0.5,1.2c0,0.2,0,0.5,0.2,0.5c0.2,0.2,0.5,0.2,1,0.2l0,0
			c0.7,0,1.5-0.2,2.5-0.7c1.2-0.7,2.7-2,4.7-3.4c0.5-0.5,1.5-0.5,2.2-0.2c0.7,0.2,1.2,1,1.2,1.7v2.5c0,0.5-0.2,0.7-0.5,1.2
			c-2.2,3-4.4,5.2-6.7,6.7C347.9,220.3,345.9,221,344.2,221"/>
		<path class="st1" d="M355.3,208.2v2.5c-2.2,2.7-4.2,4.9-6.2,6.4c-2,1.5-3.4,2.2-4.9,2.2c-2,0-3.2-1-4.2-3c-1-2-1.2-4.2-1.2-6.4
			c0-1,0-1.7,0.2-2.5c0.2-0.7,0.5-1.5,0.7-2c0.2-0.5,0.7-1.2,1.5-2.5c3.2-4.9,6.2-7.4,8.9-7.4c1.5,0,2,0.5,2,1.7
			c0,0.7-0.5,2-1.5,3.4c-1,1.5-1.7,2.7-2.5,3.2c-2,2-3.2,3.2-3.9,3.9c-0.5,0.7-1,1.5-1,2.5c0,0.7,0.2,1.5,1,2
			c0.5,0.5,1.5,0.7,2.5,0.7s2.2-0.5,3.4-1.2C351.6,211.2,353,209.9,355.3,208.2 M353,192.9c-0.5,0-1-0.2-1.7-0.7
			c-0.5-0.5-0.7-1-0.7-1.7c0-1,0.5-2.2,1.5-3.2c1-1.2,2-1.7,3-1.7c0.7,0,1.2,0.2,1.7,0.7c0.5,0.5,0.7,1,0.7,1.7c0,1-0.5,2-1.5,3.2
			C355,192.4,354,192.9,353,192.9"/>
		<path class="st1" d="M372,201.3c0.5,0,1,0.2,1.5,0.7c0.5,0.5,0.5,1,0.5,1.5c0.7-0.7,1.5-1.7,2.5-2.7l0,0c0.5-0.5,0.7-1,1-1.2
			c0-0.7-0.2-1.5-0.5-2.2c-0.2,0.2-0.7,0.2-1,0.7c-1.7,1-3.2,2.2-4.4,3.2C371.5,201.5,371.8,201.3,372,201.3 M363.9,199.3
			c-0.5,0-1.2,0.5-1.7,1.2c-1,1-2.2,2.7-3.9,4.9c-1,1.5-1.5,2.2-1.5,2.7c0,0.2-0.2,0.7-0.2,2.2c0,1.7,0.2,3.2,0.7,4.7
			c0.2,0.2,0.2,0.5,0.2,0.7c0.2-0.2,1-1,2-2.2c0.2-0.5,0.5-0.7,1-1.2c-0.2,0-0.2,0-0.5,0c-1.2,0-2.7-1-2.7-3c0-1.2,0.7-3.2,5.9-9.1
			C363.6,199.8,363.9,199.6,363.9,199.3 M369.8,210.9c-0.2,0.5-0.5,1-0.7,1.5c-0.2,0.7-0.5,1.2-0.7,2c-0.2,0.5-0.2,1-0.2,1.5
			c0,1.7,0.5,1.7,0.7,1.7l0,0c0.2,0,1,0,3-1.7c0.2-0.2,0.7-0.5,1.2-1l0,0c-1,0-1.7-0.5-2.5-1c-0.5-0.5-0.7-1.5-0.7-2.5
			C369.8,211.2,369.8,211.2,369.8,210.9 M368.8,221.5L368.8,221.5c-1.2,0-4.7-0.5-4.7-5.7c0-1,0.2-1.7,0.5-2.5
			c-0.5,0.7-1.2,1.5-2,2.5c-1,1.5-2,2.5-2.5,3c-1,1-2,1.2-2.7,1.2l0,0c-2.5,0-3.4-2.7-3.7-3.4c-0.7-1.7-1-3.7-1-6.2
			c0-1.5,0.2-2.7,0.5-3.7c0.2-0.7,1-2,2-3.4c1.7-2.5,3.2-4.4,4.4-5.7c1.5-1.5,3-2.2,4.7-2.2l0,0c1,0,2,0.2,2.7,0.7
			c1,0.5,1.7,1.7,1.7,2.7c1.5-1.2,3.4-2.7,5.2-3.9c1.5-1,3-1.5,4.2-1.5l0,0c2,0,2.7,2.2,3,3c0.5,1.2,0.7,2.5,0.7,3.7
			c0,1-0.5,2.2-2,3.7c-3.4,3.7-4.7,5.9-5.2,6.9c0.2,0,0.2-0.2,0.5-0.2c1-0.7,2.7-2,4.9-3.4c0.5-0.5,1.5-0.5,2-0.2c0.7,0.2,1,1,1,1.7
			v2.5c0,0.5-0.2,1-0.5,1.5c-3.2,3.2-5.9,5.4-7.6,6.9C372.3,220.5,370.3,221.5,368.8,221.5"/>
		<path class="st1" d="M377.9,202c-3.9,4.4-5.9,7.4-6.2,9.1c0,1,0.5,1.5,1.2,1.5c0.7,0,1.5-0.2,2.5-1s2.7-2,4.9-3.7v2.5
			c-3.2,3.2-5.7,5.4-7.4,6.9c-1.7,1.5-3.2,2-4.2,2c-2,0-2.7-1.2-2.7-3.7c0-0.7,0.2-1.5,0.2-2.2c0.2-0.7,0.5-1.5,1-2.2s1-2,2-3.2
			c0.7-1.5,1.7-3,3-4.9c-1.2,0.7-3,2-4.9,3.9c-1.2,1.2-2.5,2.5-3.2,3.4c-1,1-2,2.2-3,3.7c-1,1.2-1.7,2.2-2.2,2.7
			c-0.5,0.5-1,0.7-1.5,0.7c-0.7,0-1.5-0.7-2-2.2c-0.5-1.5-1-3.2-1-5.4c0-1.2,0.2-2.2,0.5-3c0.2-0.7,1-1.7,1.7-3
			c1.5-2.5,3-4.2,4.2-5.2c1.2-1.2,2.2-1.7,3.2-1.7c0.7,0,1.2,0.2,1.7,0.5c0.5,0.2,0.7,0.7,0.7,1.2c0,0.2,0,0.5-0.2,0.7
			c-0.2,0.2-0.2,0.5-0.5,0.7s-0.5,0.5-1,1.2c-3.7,3.9-5.4,6.4-5.4,7.6c0,0.7,0.2,1,0.7,1c0.2,0,0.7-0.5,1.5-1.2c0.7-1,1.7-2,3-3.4
			s2.7-3,4.4-4.4c1.7-1.5,3.7-3,5.9-4.4c1.2-0.7,2.2-1.2,3-1.2c0.2,0,0.7,0.5,1,1.5c0.2,1,0.5,2,0.5,3
			C379.4,200.3,378.9,201.1,377.9,202"/>
		<path class="st1" d="M398.1,206.2c0.5,0,0.7,0,1,0.2c0.5,0.2,0.7,0.7,0.7,1.2c0.7-1.5,1.2-2.7,1.7-3.7c0.7-1.7,1-2.7,1-3.2
			c-0.2,0.2-0.5,0.2-0.7,0.7c-1,1-2.2,2.2-3.7,4.2C398.1,205.7,398.1,206,398.1,206.2C397.9,206.2,398.1,206.2,398.1,206.2
			 M396.7,201.3c-1.7,0.7-3.2,1.7-4.9,2.7c-1.7,1.2-3.2,2.5-4.2,3.9c-1,1.2-1.2,2.2-1.5,3c0.2,0,0.7-0.2,1.2-0.7
			c1-0.7,2.5-2,4.4-3.7c0.7-0.7,2-2,3.4-3.7C395.9,202.5,396.4,202,396.7,201.3 M399.1,195.4c-1,0-3.2,0.5-7.1,3
			c-1.7,1-3.4,2.2-4.7,3.2c-1.2,1-2.5,2.2-3.2,3.2c-0.7,1-1.2,2-1.7,2.7c-0.2,0.7-0.5,1.5-0.5,2c0,1.7,0.5,3.2,1.2,4.7
			c0.7,1.5,1.2,1.7,1.5,1.7c0.7,0,1.5-0.2,2.5-1c0.2-0.2,0.5-0.2,0.7-0.5c-0.7,0.2-1.2,0.5-2,0.5c-1,0-2-0.5-2.7-1.2
			c-0.5-0.7-1-1.7-1-2.7c0-1.7,0.7-3.4,2.2-5.4c1.2-1.7,3-3.2,4.9-4.7s4.2-2.7,6.2-3.4C397.9,196.6,398.9,195.9,399.1,195.4
			L399.1,195.4 M397.1,215.1c-0.2,0.7-0.7,1.5-1.2,2.2l1.7-1.5C397.4,215.8,397.4,215.3,397.1,215.1 M392.7,221.8
			c-0.2,0.2-0.5,0.5-0.7,0.5c-1.2,1-2.2,1.7-3,2.5c-0.7,0.5-1.5,1.5-2.2,2.2c-0.7,0.7-1.5,1.7-2,2.7c-1.2,1.7-1.7,3-2,3.9
			c0.7-0.5,1.7-1.2,3.2-3C387.8,228.7,390.2,225.7,392.7,221.8 M381.4,238.3L381.4,238.3c-1,0-1.7-0.5-2.2-0.7c-0.5-0.5-1-1.5-1-2.5
			c0-2,1-4.4,3-7.4c0.7-1,1.5-2.2,2.5-3.2s1.7-2,2.5-2.7c0.7-0.7,2-1.7,3.2-2.7c1-0.7,1.7-1.5,2.2-1.7c0-0.2,0.2-0.5,0.2-0.7
			c-1,0.7-2,1.5-2.7,2c-1.7,1-3.2,1.5-4.4,1.5l0,0c-2,0-3.7-1.2-4.9-3.9c-1-2.2-1.7-4.4-1.7-6.7c0-1.2,0.2-2.5,0.7-3.7
			c0.5-1.2,1.2-2.5,2.2-3.7c1-1.2,2.2-2.5,3.7-3.7c1.5-1.2,3.2-2.5,5.2-3.7c3.9-2.5,6.9-3.4,9.4-3.4c3,0,4.2,2,4.2,3.7
			c0,0.5,0,1-0.2,1.5c0.2,0,0.2,0,0.5,0c1,0,1.7,0.2,2.5,1c0.5,0.5,1,1.2,1,2.7c0,1.2-0.5,3-1.5,5.4c-0.2,0.7-0.7,1.7-1.2,3l2-1.5
			c0.5-0.5,1.5-0.5,2-0.2c0.7,0.2,1,1,1,1.7v2.2c0,0.5-0.2,1.2-0.7,1.5l-11.1,8.9c-3.2,5.4-6.2,9.6-8.9,12.3
			C385.6,236.8,383.4,238.3,381.4,238.3"/>
		<path class="st1" d="M407.2,210.7l-11.3,9.1c-3.2,5.4-6.2,9.6-8.9,12.3c-2.7,2.7-4.7,3.9-5.9,3.9c-0.7,0-1-0.5-1-1.2
			c0-1.7,0.7-3.7,2.5-6.2c0.7-1,1.5-2,2.2-3c1-1,1.7-1.7,2.5-2.5c0.7-0.7,1.7-1.5,3-2.5s2.2-1.7,2.5-2c2.2-4.7,3.9-8.1,4.9-10.6
			c-2.2,2.2-3.9,4.2-5.7,5.4c-1.5,1.5-3,2.5-4.4,3.4c-1.2,0.7-2.5,1.2-3.7,1.2s-2.2-1-3.2-2.7c-1-2-1.5-3.7-1.5-5.7c0-1,0.2-2,0.7-3
			c0.5-1,1-2,2-3.2c1-1.2,2-2.2,3.4-3.4c1.5-1.2,3-2.5,4.9-3.4c3.4-2.2,6.2-3.2,8.1-3.2c1.5,0,2.2,0.5,2.2,1.7c0,1.5-1.5,3-4.7,4.2
			c-2,0.7-3.9,2-5.7,3.2c-2,1.5-3.4,2.7-4.7,4.4c-1.2,1.5-1.7,3-1.7,4.2c0,0.5,0.2,1,0.5,1.5c0.2,0.2,0.7,0.5,1.2,0.5
			c0.7,0,1.7-0.2,2.7-1c1-0.7,2.5-2,4.4-3.7c1-0.7,2.2-2.2,3.7-3.9c1.5-2,2.7-3.2,3.7-4.2c1-1,2-1.5,2.7-1.5c0.5,0,0.7,0.2,1,0.5
			c0.2,0.2,0.5,0.7,0.5,1.2c0,1-0.5,2.5-1.2,4.4c-0.7,2-2.2,5.2-4.4,9.6l8.4-5.9L407.2,210.7z"/>
	</g>
	<g>
		<g>
			<defs>
				<path id="SVGID_5_" d="M294.7,212.4c-0.2-0.5-0.2-1-0.2-1.7c0-2,1.2-3.9,3.7-5.7c2.5-2,6.7-4.2,12.6-6.9
					c-2.7,3.9-5.2,6.9-7.1,9.1c-2,2.2-4.2,3.9-6.7,5.4c-0.7,0.2-1,0.5-1.2,0.5C295.1,213.1,294.9,212.9,294.7,212.4 M311.9,192.4
					c-1.7,0-4.2,0.7-7.4,2.2s-6.7,3.7-10.1,6.9c-1.2,1.2-2.2,2.2-3,3c-0.7,0.7-1,1.5-1.2,2.2c-0.2,0.7-0.2,1.5-0.2,2.7
					c0,1.5,0.2,3,0.7,4.2c0.5,1.5,1.2,2.5,2,3.4s1.5,1.2,2,1.2c1,0,2.5-0.7,3.9-2.2c1.7-1.5,4.2-4.2,7.4-7.9c-1.2,3.4-2,5.9-2,7.9
					c0,1.2,0.2,2,0.5,2.5c0.5,0.5,1,1,2,1c2.5,0,6.2-3,11.8-8.6c0,1.2,0.2,2.7,0.7,3.9c0.5,1.5,1.5,3,2.5,3.9s2.2,1.5,3.4,1.5
					c1.2,0,2.5-0.2,3.9-1c1.2-0.7,2.7-1.7,4.2-3c1.5-1.2,3.4-3,5.7-5.2c0,2,0.5,3.7,1.2,5.4c1,2,2.2,3,4.2,3c1.2,0,3-0.7,4.9-2.2
					c1.7-1.2,3.7-3.2,5.7-5.7c0,1.5,0.5,3,0.7,4.2c0.5,1.5,1.2,2.2,2,2.2c0.5,0,1-0.2,1.5-0.7c0.5-0.5,1.2-1.5,2.2-2.7
					c1-1.2,2-2.5,3-3.7c1-1,2-2.2,3.2-3.4c2-2,3.7-3.2,4.9-3.9c-1,1.7-2,3.4-3,4.7c-0.7,1.5-1.5,2.5-2,3.2c-0.5,0.7-0.7,1.5-1,2.2
					c-0.2,0.7-0.2,1.5-0.2,2.2c0,2.5,1,3.7,2.7,3.7c1,0,2.5-0.7,4.2-2c1.7-1.2,3.9-3.4,6.9-6.4c0.2,1.5,0.5,3,1.2,4.4
					c1,1.7,2,2.7,3.2,2.7c1,0,2.2-0.5,3.7-1.2c1.2-0.7,2.7-2,4.4-3.4s3.4-3.2,5.7-5.4c-1,2.5-2.7,5.9-4.9,10.6c-0.5,0.5-1.2,1-2.5,2
					s-2.2,2-3,2.5c-0.7,0.7-1.5,1.5-2.5,2.5c-0.7,1-1.5,2-2.2,3c-1.7,2.5-2.5,4.7-2.5,6.2c0,0.7,0.2,1.2,1,1.2
					c1.2,0,3.2-1.2,5.9-3.9c2.7-2.7,5.4-6.7,8.9-12.3l11.3-9.1v-2.2l-8.4,5.9c2.2-4.4,3.7-7.6,4.4-9.6s1.2-3.4,1.2-4.4
					c0-0.5-0.2-1-0.5-1.2c-0.2-0.2-0.7-0.5-1-0.5c-0.7,0-1.7,0.5-2.7,1.5c-1,1-2.2,2.5-3.7,4.2c-1.5,2-2.7,3.2-3.7,3.9
					c-2,1.7-3.4,3.2-4.4,3.7c-1,0.7-2,1-2.7,1c-0.5,0-1-0.2-1.2-0.5c-0.2-0.2-0.5-0.7-0.5-1.5c0-1.2,0.5-2.7,1.7-4.2
					c1.2-1.5,2.7-3,4.7-4.4c2-1.5,3.9-2.5,5.7-3.2c3.2-1.5,4.7-2.7,4.7-4.2c0-1-0.7-1.7-2.2-1.7c-2,0-4.7,1-8.1,3.2
					c-2,1.2-3.4,2.2-4.9,3.4c-1.5,1.2-2.5,2.2-3.4,3.4c-1,1.2-1.5,2.2-2,3.2c-0.2,0.5-0.5,1.2-0.5,1.7c-2,1.5-3.4,2.7-4.4,3.2
					c-1,0.7-2,1-2.5,1c-0.7,0-1.2-0.5-1.2-1.5c0-1.7,2-4.9,6.2-9.1c1-1,1.5-1.7,1.5-2.2c0-1-0.2-2-0.5-3c-0.2-1-0.7-1.5-1-1.5
					c-0.7,0-1.7,0.5-3,1.2c-2.2,1.5-4.2,3-5.9,4.4c-1.7,1.5-3.2,3-4.4,4.4c-1.2,1.5-2.2,2.5-3,3.4c-0.7,0.7-1.2,1.2-1.5,1.2
					c-0.5,0-0.7-0.2-0.7-1c0-1.2,1.7-3.7,5.4-7.6c0.5-0.5,1-1,1-1.2c0.2-0.2,0.2-0.5,0.5-0.7c0.2-0.2,0.2-0.5,0.2-0.7
					c0-0.5-0.2-1-0.7-1.2c-0.5-0.2-1-0.5-1.7-0.5c-1,0-2.2,0.5-3.2,1.7c-1.2,1-2.5,3-4.2,5.2c-0.7,1.2-1.5,2.2-1.7,3
					c-0.2,0.5-0.2,0.7-0.2,1.5c-1.7,1.5-3.2,2.5-4.4,3.2c-1.2,0.7-2.5,1.2-3.4,1.2s-1.7-0.2-2.5-0.7c-0.5-0.5-1-1.2-1-2
					c0-1,0.2-1.7,1-2.5c0.7-0.7,2-2,3.9-3.9c0.7-0.7,1.5-1.7,2.5-3.2c1-1.5,1.5-2.7,1.5-3.4c0-1-0.7-1.7-2-1.7
					c-2.7,0-5.7,2.5-8.9,7.4c-0.7,1-1.2,2-1.5,2.5s-0.5,1.2-0.7,2c0,0.2-0.2,0.7-0.2,1c-2.7,2-4.9,3.4-6.9,4.4c-2,1-3.7,1.7-5.2,1.5
					c-1.5,0-2.5-0.5-3.4-1.2c-0.7-0.7-1.2-2-1.2-3.2c0-0.7,0.2-1.5,0.7-2c0.5-0.7,1.2-1.2,2-2s2.5-1.7,4.7-3.4
					c0.2-0.2,0.5-0.2,0.7-0.2c0.2,0,0.2,0.2,0.2,0.5c0,0.2,0,0.2,0,0.5c0,0.2,0,0.2,0,0.5c0,0.7,0.2,1,1,1c0.5,0,1.2-0.5,2.2-1.5
					s1.7-2.2,2.5-3.4c0.7-1.2,1.2-2.5,1.2-3.2c0-0.7-0.2-1.5-0.7-2.2c-0.5-0.5-1.2-0.7-2-0.7c-1.2,0-2.7,0.5-4.7,1.7
					c-2,1.2-4.2,3-6.4,5.2c-2,2-3.2,3.4-3.9,4.7c-0.5,1-1,2-1,3.2c-3,2.5-5.4,3.9-6.9,3.9s-2.2-0.7-2.2-2.5c0-1,0.2-2,0.7-2.5
					c0.5-0.7,1.2-1.7,2.2-3.2c1.2-1.5,1.7-2.5,1.7-3c0-0.2,0-0.5-0.2-1c-0.2-0.2-0.2-0.7-0.5-1.5l-0.5-1.5c0.7-0.2,1.2-0.5,1.7-0.7
					c0.2-0.2,0.5-0.5,0.5-1c0-0.2,0-0.7-0.2-1.2c-0.2-0.5-0.5-1-1-1.5C312.9,192.7,312.4,192.4,311.9,192.4L311.9,192.4 M355,185.5
					c-1,0-2,0.5-3,1.7c-1,1.2-1.5,2.2-1.5,3.2c0,0.7,0.2,1.2,0.7,1.7c0.5,0.5,1,0.7,1.7,0.7c1,0,2-0.5,3-1.7c1-1.2,1.5-2.2,1.5-3.2
					c0-0.7-0.2-1.5-0.7-1.7C356.2,185.8,355.8,185.5,355,185.5L355,185.5 M268.8,193.9c1.2-1.7,2.2-3,2.7-3.7c0.7-1,1.2-1.7,1.5-2.5
					c0.5-0.7,0.7-1.5,0.7-2.2c0-0.2,0-0.5,0-0.5c0-0.2,0-0.2,0-0.5l2-0.2c1,0,2-0.2,2.7-0.2s1.5,0,2.2,0c3.4,0,6.2,0.5,8.4,1
					c2.2,0.7,3.4,1.5,3.4,2.7c0,1-0.5,2-1.7,3c-1,1-2.7,1.7-4.9,2.7c-2.2,0.7-4.9,1.7-8.4,2.5c-3.4,0.7-7.4,1.7-12.1,2.5
					L268.8,193.9z M277.2,175.7c-2.7,0-5.7,0.2-8.6,0.7c-3,0.5-5.7,1-8.1,1.7c-2.5,0.7-4.2,1.5-5.4,2c-1,0.5-2,1.5-2.7,2.5
					c-0.7,1-1.5,2.2-2,3.2c-0.5,1-0.7,1.7-0.7,2.2c0,0.5,0.2,1,0.5,1.2c0.2,0.2,0.7,0.5,1.2,0.5c0.5,0,1,0,2,0c1,0,2.2,0,3.7,0
					l4.7-0.2c0.5,0,0.7-0.2,0.7-0.5c0-0.2-0.2-0.2-0.7-0.5c-0.5,0-1,0-1.7,0s-1.5,0-2-0.2c-0.5,0-0.7-0.2-0.7-0.5
					c0-0.2,0.2-0.5,0.5-0.5c0.5-0.2,1.2-0.2,2.2-0.5l3.7-0.7c1.5-0.2,3.9-0.7,7.4-1.2l-4.9,6.4l-5.9,7.9c-2.2,0.2-3.4,0.5-3.9,0.5
					s-1,0.2-1.5,0.5c-0.5,0.2-0.7,0.5-1.2,0.7c-0.2,0.2-0.7,1-1.5,2c-0.7,1-1.2,2-1.2,2.5s0,0.7,0.2,1c0.2,0.2,1.2,0.5,2.5,1
					c-2.5,3.2-4.4,5.9-5.7,8.4c-1.5,2.5-2,3.7-2,4.2c0,1,0.5,1.2,1.7,1.2c0.5,0,1-0.2,2-1c1-0.7,1.5-1.5,2-2.5
					c0.5-1.5,2.2-4.4,5.4-8.9l12.8,6.4c2.7,1.2,4.7,2.5,5.9,3c1.2,0.7,2.7,1.5,4.2,2.2c1.5,1,2.7,1.5,3.7,2c1,0.5,1.5,0.7,1.7,0.7
					c0.7,0,1-0.5,1.2-1.2c0.2-0.7,0.2-2,0.2-3.4s0-2.5-0.2-3c-0.2-0.5-0.5-1.2-1-1.5c-0.5-0.5-1.5-1-3.2-2c-1.2-0.7-2.7-1.5-4.9-2.5
					c-2-1-4.7-2.2-7.6-3.4c-3-1.2-6.2-2.5-9.6-3.7c4.7-0.2,8.9-0.5,12.6-1c3.7-0.5,6.9-1.2,9.6-1.7c2.7-0.7,4.7-1.5,5.9-2
					c1.7-0.7,3-2,4.2-3.2c1.2-1.2,2-2.7,2.5-4.2c0.5-1.5,1-3.2,1-4.7c0-1.7-0.5-3.2-1.7-4.7c-1-1.5-2.7-2.5-4.7-3.2
					c-0.7-0.2-2-0.5-3.2-1c-1.5-0.2-3-0.5-4.7-0.7c-1.7-0.2-3.4-0.2-5.2-0.2C277.4,175.7,277.2,175.7,277.2,175.7"/>
			</defs>
			<clipPath id="SVGID_6_">
				<use xlink:href="#SVGID_5_"  style="overflow:visible;"/>
			</clipPath>
			
				<linearGradient id="SVGID_7_" gradientUnits="userSpaceOnUse" x1="-407.1477" y1="-122.6558" x2="-404.6834" y2="-122.6558" gradientTransform="matrix(0 24.5329 -24.5329 0 -2682.1724 10164.2939)">
				<stop  offset="0" style="stop-color:#FFDC00"/>
				<stop  offset="0.8359" style="stop-color:#FFFFFF"/>
				<stop  offset="1" style="stop-color:#FFFFFF"/>
			</linearGradient>
			<rect x="246.6" y="175.7" class="st5" width="160.6" height="60.4"/>
		</g>
	</g>
	<g>
		<path class="st2" d="M205.5,101.8V100h-6.4l6.4-11.3v-1.5h-8.4V89h6.2l-6.4,11.3v1.5H205.5z M194.6,87.2h-2v14.5h2V87.2z
			 M194.6,82.3h-2v2.5h2V82.3z M188.2,93.4h-5.9c0-1.7,0.7-4.7,3-4.7C187,88.7,188.2,89.4,188.2,93.4 M190.2,94.9
			c0-6.2-2-7.6-4.9-7.6c-3.4,0-4.9,2.7-4.9,7.1c0,5.9,2,7.6,4.9,7.6c2.7,0,4.4-1.5,4.7-4.7l-1.7-0.5c-0.2,2.5-1.2,3.4-3,3.4
			c-1.7,0-3-1.5-3-5.7C182.3,94.9,190.2,94.9,190.2,94.9 M179.3,87.2h-2l-2.2,9.6c0,0.2-0.2,1.5-0.5,2.5c0-1-0.2-2.2-0.5-2.5l-2-9.6
			h-2l-2.2,9.6c0,0.2-0.5,1.7-0.5,2.5c0-0.7-0.2-2.2-0.5-2.5l-2.2-9.6h-2l3.7,14.5h2l2.2-10.6c0-0.2,0.2-1.2,0.2-1.5
			c0,0.2,0.2,1.2,0.2,1.5l2.2,10.6h2L179.3,87.2z M161.6,101.8V91.4c0-3.2-1.5-4.4-3.7-4.4c-1.7,0-3,1-3.4,2v-8.1h-2v20.9h2V91.4
			c0.2-1.5,1.5-2.7,3-2.7c1.5,0,2.2,1,2.2,3v10.1H161.6z M150.3,97.1l-2-0.2c-0.2,2.5-1,3.7-2.7,3.7c-1.7,0-3-1.5-3-5.9
			c0-4.7,1.2-5.9,3-5.9c1.7,0,2.5,1.2,2.7,3.2l2-0.5c-0.2-2.5-1.7-4.4-4.7-4.4c-3.4,0-4.9,2.2-4.9,7.4c0,5.7,1.7,7.4,4.9,7.4
			C148.6,102,149.8,100.3,150.3,97.1 M139.2,95.9c0-3.2-1.5-4.7-4.2-5.7c-0.5-0.2-2-0.7-2.7-1c-2.5-0.7-3-1.7-3-3.4
			c0-2,1.2-3.2,3.4-3.2c2.2,0,3.2,1.2,3.7,3c0,0.2,0,0.7,0,0.7l2.2-0.5c0-0.2,0-0.5,0-0.5c-0.5-2.7-2.2-4.4-5.7-4.4
			c-3.9,0-5.7,2.2-5.7,5.2c0,2.7,1.5,4.2,4.2,4.9c1,0.2,2,0.7,3,1c2.2,1,3,2,3,4.2c0,2.5-1,4.2-3.9,4.2c-2.5,0-3.7-1.5-3.9-3.4
			c0-0.5,0-1.2,0-1.7l-2.5,0.5c0,0.5,0,1,0,1.5c0.2,3,2,5.2,6.4,5.2C137.2,102,139.2,99.8,139.2,95.9 M120,89v-1.5h-2v-4.9l-2,1v3.9
			h-1.7V89h1.7v9.9c0,2.2,0.7,3,2.7,3c0.2,0,1,0,1.2,0V100h-0.7c-0.7,0-1.2-0.5-1.2-1.7v-9.6h2V89z M113.3,89v-2h-0.2
			c-1.5,0-2.7,0.7-3.4,2.2V87h-2v14.8h2v-9.4c0.2-2,1.2-3.4,3.2-3.4C113.1,89,113.3,89,113.3,89 M103.2,94.4c0,4.2-1,5.9-3.2,5.9
			c-2,0-3.2-1.5-3.2-5.9c0-4.2,1.2-5.9,3.2-5.9C102,88.7,103.2,90.2,103.2,94.4 M105.2,94.4c0-5.4-1.7-7.4-5.2-7.4
			c-3.2,0-5.2,2-5.2,7.4c0,5.4,1.7,7.4,5.2,7.4C103.2,102,105.2,99.8,105.2,94.4 M91.1,94.4c0,4.7-1,5.7-3,5.7c-1.5,0-3-1.2-3-3
			c0-0.2,0-1.7,0-2.7c0-1,0-2.2,0-2.5c0-2,1.2-3.4,3-3.4C89.9,88.7,91.1,89.9,91.1,94.4 M93.1,94.6c0-5.9-2-7.4-4.4-7.4
			c-1.5,0-2.7,0.7-3.4,1.7v-1.7h-2v19h2v-5.7c0.5,1,2,1.5,3.4,1.5C91.1,102,93.1,100.3,93.1,94.6 M80.3,101.8V91.7
			c0-2.7-1-4.4-3.7-4.4c-1.7,0-2.7,0.7-3.4,2c-0.5-1.2-1.7-2-3.2-2c-1.7,0-2.7,1-3.2,1.7v-1.7h-2v14.5h2V91.4c0.2-1.5,1-2.7,2.7-2.7
			c1.5,0,2.2,1,2.2,3v10.1h2V91.4c0-1.5,1-2.7,2.5-2.7s2.2,1,2.2,3v10.1H80.3z M61.6,80.8h-2.2v20.9h2.2V80.8z"/>
	</g>
</g>
</svg>
